<?xml version="1.0" encoding="utf-8"?>
<!-- Generator: Adobe Illustrator 25.2.3, SVG Export Plug-In . SVG Version: 6.00 Build 0)  -->
<svg version="1.1"
	 id="svg9" xmlns:cc="http://creativecommons.org/ns#" xmlns:dc="http://purl.org/dc/elements/1.1/" xmlns:inkscape="http://www.inkscape.org/namespaces/inkscape" xmlns:rdf="http://www.w3.org/1999/02/22-rdf-syntax-ns#" xmlns:sodipodi="http://sodipodi.sourceforge.net/DTD/sodipodi-0.dtd" xmlns:svg="http://www.w3.org/2000/svg"
	 xmlns="http://www.w3.org/2000/svg" xmlns:xlink="http://www.w3.org/1999/xlink" x="0px" y="0px" viewBox="0 0 170.4 42"
	 style="enable-background:new 0 0 170.4 42;" xml:space="preserve">
<style type="text/css">
	.st0{fill:#313BAC;}
</style>
<sodipodi:namedview  bordercolor="#666666" borderopacity="1" gridtolerance="10" guidetolerance="10" id="namedview11" inkscape:pageopacity="0" inkscape:pageshadow="2" inkscape:window-height="480" inkscape:window-width="640" objecttolerance="10" pagecolor="#ffffff">
	</sodipodi:namedview>
<path class="st0" d="M65.1,10.4c0.1,0,0.4,0.3,0.9,1c-0.1,0-0.1,0-0.1,0.1c0.1,0.1,0.1,0.4,0.2,0.9l0.1-0.1h0.1
	c0,2.5-0.2,4.6-0.5,6.3c0,0,0,0.1,0.1,0.1c0,0.1,0,0.2-0.1,0.4c0,0,0,0.1,0.1,0.1c-0.2,1.2-0.5,3-0.9,5.4h0.1L65,24.7
	c0,0,0.1,0,0.1,0.1l0.1-0.1c0.3,0,0.4,0.1,0.4,0.1l0.1-0.1h0.1c1.7,0.6,2.6,0.9,2.8,0.9v0.1h-0.5l-0.4-0.1h-0.1v0.1l1.6,0.3v0.1
	l-0.1,0.1l0.4,0.1v0.2h-0.1c-0.3,0-0.8,0-1.4-0.1c-0.2,0.1-0.8,0.2-1.6,0.4h-1v0.2c-0.2,0-0.6,0-1,0.1v0.1h0.1c0.1,0,0.2,0,0.3-0.1
	c0.1,0,0.2,0.1,0.3,0.1v0.1c-0.6,0.1-0.9,0.2-0.9,0.4v0.4c-0.3,0-0.5,0.1-0.5,0.4c0,0-0.5,1.5-1.5,4.4c-0.3,1.1-0.7,1.9-1.1,2.6
	c-0.3,0.7-0.6,1.5-1,2.2V38h-0.1L60,37.9c0,0.1-0.1,0.1-0.1,0.2h-0.1l-0.1-0.1c0,0.3-0.2,0.8-0.7,1.4h-0.1v-0.1
	c0.6-2.3,0.9-3.6,0.9-3.8v-0.1h-0.1l-0.5,1.6h-0.1v-0.1c0.4-1.4,0.6-2.2,0.6-2.3l-0.1-0.4c1-3.3,1.4-5.6,1.4-6.9L61,27.4
	c-0.3,0-0.4,0.6-0.5,1.8c-0.1,1-0.2,1.7-0.5,2.1h-0.1c0,0,0-0.1,0.1-0.2c0-0.5,0-1.4,0.1-2.8c0-0.6-0.1-0.9-0.3-0.9h-1.2
	c-0.1,0-0.1,0-0.1-0.1l0.1-0.2c0.3,0.1,0.5,0.1,0.7,0.1c0.5,0,0.7-0.1,0.7-0.2l-0.7-0.1c-0.2,0-0.6,0-1.4,0.1l-0.1-0.1
	c0.2-0.1,0.3-0.1,0.5-0.1v-0.1c-0.3,0-0.5-0.1-0.7-0.2c-0.2,0-0.3-0.1-0.4-0.2l0.1-0.1v-0.1h-0.3c-0.1,0-0.1,0-0.1-0.1l0.2-0.2h-0.1
	v-0.1H57v-0.1h-0.2v-0.1h0.1v-0.1c-0.2,0-0.3-0.1-0.3-0.3h-0.8v-0.1l0.4-0.1v-0.1h-0.5c0-0.3,0.2-0.5,0.5-0.7c0.3,0,0.9,0,1.9-0.1
	c0.8,0,1.4,0.1,1.7,0.1c0,0.1,0,0.1,0.1,0.1h0.2V24h0.1l0.3,0.1v0.1l-0.1,0.1h0.2L60.5,24c0.3-0.7,0.5-1.9,0.7-3.6
	c0,0,0.1,0,0.1-0.1l-0.1-0.1l0.1-0.3c0,0-0.1,0-0.1-0.1c0,0,0.1-0.1,0.2-0.2l-0.1-0.1c0-0.2,0-0.3,0.1-0.5c0-0.1-0.1-0.2-0.1-0.2
	h0.1c0,0,0-0.1-0.1-0.1c0.1-0.7,0.2-1.1,0.3-1.1l-0.1-0.1v-0.1h0.1c-0.1-0.1-0.1-0.2-0.1-0.2c0-0.2,0.1-0.4,0.2-0.6v-0.6
	c-0.3,0-0.6,0.3-0.8,0.8c-0.1,0-0.1,0-0.1,0.1l-0.1-0.1l-0.4,0.4l0.1,0.1c0,0.2-0.2,0.2-0.5,0.2V18c0,0.1,0,0.1-0.1,0.1
	c-0.1,0-0.2-0.1-0.3-0.1v0.4c0,0.1,0,0.1-0.1,0.1h-0.1l0.1-0.1v-0.1h-0.1c0,0.1,0,0.2-0.1,0.2l0.1,0.1c-0.1,0.2-0.2,0.4-0.2,0.4
	c0,0,0-0.1-0.1-0.1l0.1-0.1v-0.1H59l-0.6,0.8l0.1,0.1v0.1c0,0.1-0.1,0.1-0.2,0.2l-0.1-0.1c-0.7,0.9-1,1.5-1,1.8c0,0-0.2,0.3-0.5,0.7
	h-0.1l0.1-0.4c-0.4,0.4-0.5,0.6-0.5,0.8c0,0,0.1,0,0.1,0.1c-0.1,0-0.1,0.1-0.2,0.1v0.3c0,0.1,0,0.1-0.1,0.1v-0.2h-0.1v0.2
	c0,0,0.1,0,0.1,0.1c-0.2,0-0.4,0.3-0.6,0.9c-0.2,0.4-0.4,0.8-0.5,1.1c-0.2,0.3-0.4,1-0.5,2.2v0.2c0,0.1,0,0.1-0.1,0.1
	c0.1,0.1,0.1,0.3,0.1,0.4v0.1c0,0.1-0.1,0.1-0.2,0.2c0,0.7,0.2,1.1,0.5,1.1v0.1h-0.1v0.1c0.1,0,0.2,0,0.2,0.1h-0.3
	c0,0,0.2,0.3,0.7,0.8v0.1H55c-0.1,0-0.4-0.4-1.1-1.1h-0.1v0.1c0.1,0,0.2,0.1,0.3,0.4c0.4,0.4,0.5,0.7,0.5,0.9v0.1h-0.1v-0.1
	l-0.1,0.1c0,0-0.2-0.2-0.7-0.7v0.1c0,0,0.1,0.2,0.3,0.4V31h-0.1c-0.7-0.8-1-1.5-1.1-2l-0.8-1.1H52c0.1,0,0.2,0.1,0.2,0.1
	c0-0.1-0.1-0.2-0.1-0.3h-0.1c0,0.1,0,0.1-0.1,0.1l-0.1-0.1l-0.1,0.1c-0.7-0.2-1-0.4-1-0.6c-0.1,0-0.1,0-0.1,0.1l0.1,0.2
	c0,0-0.1,0-0.1,0.1c0.3,0.4,0.7,0.6,0.9,0.6v0.1c0,0.1,0,0.1-0.1,0.1c-0.6,0-1-0.5-1.2-1.6v-0.1c0,0,0-0.1,0.1-0.1l-0.1-0.3v-0.6
	c0,0,0-0.1,0.1-0.1c0,0,0-0.1-0.1-0.1c0.1-0.5,0.1-0.8,0.1-0.9c0-0.1-0.1-0.1-0.1-0.2l0.1-0.1l-0.1-0.1c0-0.1,0.1-0.1,0.1-0.1
	l-0.1-0.1c0-0.1,0.1-0.1,0.2-0.1l-0.1-0.2v-0.1c0.3-0.4,0.5-1,0.7-1.7c0.1,0,0.2-0.2,0.3-0.7c0.2-0.2,0.4-0.3,0.5-0.3v-0.1
	c-0.1,0-0.2,0-0.2-0.1c0.2-0.2,0.3-0.4,0.5-0.9c0.1,0,0.3-0.2,0.6-0.5c-0.1,0-0.2,0-0.2-0.1c0.3-0.1,0.4-0.3,0.4-0.6
	c0.8-1,1.2-1.6,1.2-1.6h0.1l-0.1-0.1v-0.1c0.1,0,0.2-0.1,0.3-0.4c0.3-0.2,0.5-0.3,0.5-0.4c0,0-0.1,0-0.1-0.1c0.1,0,0.2-0.2,0.5-0.6
	l0.3-0.1l-0.1-0.1v-0.1c0.2,0,0.3,0,0.4-0.1L56,14.9c0-0.1,0.2-0.3,0.4-0.5h0.1l0.1,0.1v-0.1c0-0.1-0.1-0.2-0.1-0.2
	c0.1,0,0.2,0,0.3-0.1l0.1,0.1c0,0,0-0.1,0.1-0.1l-0.1-0.1v-0.1c0.4-0.3,0.6-0.5,0.6-0.6h0.1v0.1c0.1,0,0.1,0,0.1-0.1h-0.1v-0.1
	c0.2,0,0.3,0,0.3-0.1c-0.1,0-0.1,0-0.1-0.1l0.1-0.1c0.1,0,0.2,0.1,0.2,0.1l0.1-0.1h-0.1c0.1-0.3,0.2-0.5,0.4-0.5
	c0.1,0,0.1,0.1,0.2,0.1c0.3-0.3,0.5-0.5,0.5-0.6L59,11.7h-0.1v-0.1l0.5-0.4c0.1,0,0.1,0,0.1,0.1c0,0-0.1,0-0.1,0.1h0.1
	c0-0.1,0-0.2,0.1-0.2h-0.1v-0.1c0-0.1,0.1-0.1,0.2-0.2h0.1v0.1c0.2-0.1,0.3-0.2,0.3-0.2c-0.1,0-0.1,0-0.1-0.1c0.1,0,0.1-0.1,0.1-0.2
	h0.1v0.1l-0.1,0.1h0.1c0-0.1,0-0.2,0.1-0.2c0,0-0.1,0-0.1-0.1c0.1-0.2,0.5-0.4,1.1-0.6c0.1,0,0.5,0.1,1.2,0.2V9.8
	c0.1,0,0.2,0.1,0.2,0.1c0-0.1,0.3-0.2,1-0.3C64.6,9.8,65,10.1,65.1,10.4z M53.6,19.9c-0.5,0.6-1.1,1.7-1.8,3.4l-0.4,1.8
	c0,0.1,0.1,0.1,0.1,0.2l-0.1,0.1l0.1,0.1c0,0.1-0.1,0.2-0.1,0.2h-0.1v-0.3c0-0.7,0.1-1.4,0.3-2h-0.1c-0.1,0-0.2,0.3-0.3,0.8
	c0,0,0.1,0,0.1,0.1c-0.1,0-0.1,0.1-0.2,0.4l0.1,0.1L50.9,25c0.1,0,0.2,0,0.2,0.1c-0.1,0-0.1,0-0.1,0.1v1.1c0.1,0.6,0.2,0.9,0.4,0.9
	c0-0.1,0-0.2,0.1-0.3c-0.1-0.3-0.2-0.5-0.2-0.5h0.1l-0.1-0.1v-0.6c0.1,0,0.2,0.5,0.5,1.3h0.1V27c0-0.2,0-0.3-0.1-0.6
	c0.3-1.5,0.7-2.9,1.2-4.1c0.1,0,0.4-0.6,0.9-1.8c0.2-0.3,0.7-1,1.4-2.1v-0.1L55,18.5v-0.1c1-1.4,2.2-2.8,3.5-4.2
	c0.1,0,0.2,0,0.2-0.1h0.2l0.1,0.3c0,0.1-0.1,0.1-0.1,0.2l2.1-2.1v-0.1H61c-0.3,0-0.8,0.4-1.6,1.3c-0.1-0.1-0.1-0.2-0.1-0.2v-0.1
	c0.5-0.7,1.3-1.5,2.4-2.4l0.3-0.4h-0.1c-0.6,0.1-2.3,1.8-5.1,4.9c-0.8,1-1.9,2.4-3.2,4.2L53.6,19.9z M51.4,23.3c0,0,0.1,0,0.2,0.1
	v-0.1L51.4,23.3L51.4,23.3z M51.7,23.1c0,0,0-0.2,0.1-0.5c-0.1,0-0.2,0.1-0.3,0.4L51.7,23.1z M51.5,27.2h0.1c0-0.1,0-0.1-0.1-0.1
	V27.2z M51.7,27.5h0.1v-0.1h-0.1V27.5z M51.8,22.4l0.1,0.1l0.1-0.3h-0.1C51.9,22.2,51.8,22.3,51.8,22.4z M51.9,27
	c0,0.1,0.1,0.2,0.1,0.3h0.1c0-1.2,0.1-2.2,0.3-2.9v-0.1h-0.1C52.1,25.1,52,26,51.9,27z M52,21.7L52,21.7l0.2,0.1
	c0-0.1,0.1-0.2,0.1-0.2h-0.1C52.1,21.7,52.1,21.7,52,21.7z M52.1,20.8c0,0.1,0.1,0.1,0.1,0.1l0.1-0.2h-0.1
	C52.2,20.7,52.1,20.7,52.1,20.8L52.1,20.8z M54,20.1c-0.8,1.2-1.3,2.4-1.7,3.6h-0.1C52.7,21.9,53.4,20.7,54,20.1L54,20.1z
	 M52.3,27.5L52.3,27.5l0.1-0.2h-0.1V27.5z M52.4,24.2L52.4,24.2L52.4,24.2c0.1,0,0.1,0,0.1-0.1V24h-0.1
	C52.4,24.1,52.4,24.2,52.4,24.2z M52.4,20.2c0.1,0,0.1,0,0.1-0.1h-0.1V20.2z M52.5,23.9L52.5,23.9l0.1-0.1h-0.1V23.9z M53.2,19.1
	L53.2,19.1c0.1-0.1,0.1-0.2,0.2-0.2v-0.1C53.3,18.7,53.2,18.8,53.2,19.1L53.2,19.1z M53.6,18.5c0.1,0,0.1,0,0.1-0.1v-0.1
	C53.6,18.3,53.6,18.3,53.6,18.5L53.6,18.5z M53.8,18.1c0.1,0,0.2-0.1,0.3-0.2v-0.1C54,17.8,53.9,17.9,53.8,18.1L53.8,18.1z
	 M54.1,19.7v0.1h-0.1L54.1,19.7L54.1,19.7z M54.2,17.6c0.1,0,0.1,0,0.1-0.1v-0.1C54.3,17.4,54.2,17.5,54.2,17.6L54.2,17.6z M54.7,19
	c-0.2,0.2-0.3,0.4-0.3,0.4v-0.1c0.2-0.2,0.3-0.4,0.3-0.4V19z M55,18.6c-0.1,0.2-0.2,0.3-0.3,0.3v-0.1C54.7,18.7,54.8,18.6,55,18.6
	L55,18.6z M54.9,16.8c0.1,0,0.1,0,0.1-0.1v-0.1C54.9,16.6,54.9,16.7,54.9,16.8L54.9,16.8z M55.1,16.6c0.1,0,0.1,0,0.1-0.1v-0.1
	C55.1,16.4,55.1,16.4,55.1,16.6L55.1,16.6z M55.3,18.2L55.3,18.2c0.1-0.1,0.2-0.2,0.3-0.4v-0.1C55.6,17.7,55.5,17.9,55.3,18.2
	L55.3,18.2z M55.5,16c0.1,0,0.1-0.1,0.2-0.2v-0.1c-0.1,0-0.2,0.1-0.2,0.1V16z M55.7,17.7c0.1,0,0.1,0,0.1-0.1h-0.1V17.7z M55.9,17.4
	L55.9,17.4l0.1-0.1h-0.1V17.4z M56.1,17.2L56.1,17.2l0.1-0.1h-0.1V17.2z M56.2,14.7c0.1,0,0.1,0,0.1-0.1v-0.1
	C56.3,14.6,56.3,14.6,56.2,14.7L56.2,14.7z M56.8,16.4h0.1v-0.1L56.8,16.4L56.8,16.4z M57,13.9L57,13.9l0.1-0.1H57V13.9z M57.1,16
	L57.1,16c0.2,0,0.2,0,0.2-0.1l-0.1-0.1C57.2,15.8,57.1,15.9,57.1,16z M57.4,15.7L57.4,15.7L57.4,15.7c0.1-0.1,0.1-0.1,0.2-0.1
	c0-0.1,0-0.1-0.1-0.1L57.4,15.7z M57.4,13.9L57.4,13.9l0.1-0.1h-0.1V13.9z M57.8,25.6h0.3v-0.1L57.8,25.6L57.8,25.6z M58,13.2
	c0.1,0,0.1,0,0.1-0.1H58V13.2z M58.1,15.5L58.1,15.5c0.1,0,0.1-0.1,0.1-0.2h-0.1V15.5z M58.1,26.5h0.2v-0.1L58.1,26.5L58.1,26.5z
	 M58.5,14.9l-0.2-0.1h-0.1v0.1c0.1,0.2,0.1,0.2,0.2,0.2c0.1,0,0.2-0.1,0.4-0.4h-0.1C58.7,14.8,58.7,14.9,58.5,14.9z M58.9,11.8
	c0,0.1,0,0.1-0.1,0.1v-0.1H58.9z M58.9,24.3h0.3v-0.1L58.9,24.3L58.9,24.3z M59.3,11.6L59.3,11.6l0.1-0.1h-0.1V11.6z M59.8,24.3h0.6
	v-0.1L59.8,24.3L59.8,24.3z M59.8,38L59.8,38l0.1-0.1h-0.1V38z M59.9,37.7L59.9,37.7L59.9,37.7c0.1,0,0.1,0,0.1-0.1v-0.1h-0.1
	C59.9,37.6,59.9,37.7,59.9,37.7z M60.3,27.2C60.4,27.2,60.4,27.2,60.3,27.2h0.4h0.2v-0.1h-0.6V27.2z M61,23.3L61,23.3l0.1-0.1H61
	V23.3z M61,25.7h0.2v-0.1L61,25.7L61,25.7z M61,26.5h0.1v-0.1L61,26.5L61,26.5z M61.1,12.3c0.1,0,0.2-0.2,0.5-0.5h-0.3
	C61.3,11.8,61.2,11.9,61.1,12.3L61.1,12.3z M61.1,23.7L61.1,23.7L61.1,23.7l0.3-0.9v-0.1h-0.1C61.3,22.8,61.2,23.1,61.1,23.7z
	 M62.9,14.7c-0.1,0.4-0.4,2.3-0.9,5.5c0,0-0.1,0.4-0.3,1.2l0.1,0.1c0,0.3-0.1,0.4-0.2,0.4c0,0,0,0.1,0.1,0.1
	c-0.1,0.7-0.2,1.1-0.3,1.1l0.1,0.1c-0.1,0.3-0.2,0.6-0.2,1h0.3l0.7-3.3h0.1c0,0,0,0.1,0.1,0.1c-0.3,1.7-0.5,2.7-0.5,3v0.1h0.1l1-6.1
	l-0.1-0.1c0.1-0.4,0.3-1.7,0.6-3.8c-0.2,0-0.4,0.2-0.7,0.5L62.9,14.7z M61.4,22.5L61.4,22.5l0.1-0.2h-0.1V22.5z M61.7,11.6v0.1
	c0.1,0,0.1-0.1,0.2-0.2v-0.1h-0.1C61.8,11.6,61.8,11.6,61.7,11.6z M61.9,18.3l-0.1,0.3c0.1,0,0.2,0,0.2,0.1H62c0-0.2,0-0.4,0.1-0.7
	l-0.3,0.1L61.9,18.3z M61.8,19.6L61.8,19.6l0.1-0.1h-0.1V19.6z M61.9,17.3l0.1,0.1h0.1v-0.2c0-0.1,0-0.2,0.1-0.2v-0.1h-0.1
	L61.9,17.3z M62.1,16.6h0.2l0.1-0.3c-0.1,0.1-0.2,0.1-0.3,0.1V16.6z M62.4,16v-0.3c-0.1,0-0.2,0.1-0.3,0.2
	C62.2,15.9,62.2,15.9,62.4,16z M62.4,15.3L62.4,15.3l0.1-0.4c-0.1,0.1-0.2,0.1-0.3,0.1C62.4,15.1,62.4,15.2,62.4,15.3z M62.3,16.2
	L62.3,16.2l0.1-0.1h-0.1V16.2z M62.4,15.5L62.4,15.5l0.1-0.1h-0.1V15.5z M62.7,10.2h0.2v0.1h-0.1v0.1c0.2-0.1,0.3-0.2,0.4-0.2
	c0-0.1-0.1-0.1-0.1-0.2L62.7,10.2L62.7,10.2z M63.4,10.6l0.3,0.1v-0.1L63.4,10.6L63.4,10.6z M63.5,28h0.1v-0.1h-0.1V28z M63.6,9.8
	h0.1V9.7L63.6,9.8L63.6,9.8z M63.9,10h0.2V9.9h-0.3C63.8,9.9,63.8,10,63.9,10z M69,26.2h0.1v-0.1L69,26.2L69,26.2z"/>
<path class="st0" d="M81.8,8.4c0,0,0,0.1-0.1,0.2c0,0.2,0.1,0.4,0.1,0.5l0.4-0.1l1.2,0.8v0.1c-0.3,0.9-0.5,1.4-0.6,1.8H83
	c0.6-0.7,1-1,1.1-1h0.1c0,0-0.1,0.2-0.2,0.6l0.7-0.7l0.1,0.1l-0.1,0.3l0.1,0.2c0,0-0.1,0-0.1,0.1c0.2,0,0.2,0.1,0.2,0.2
	c0,0-0.1,0.2-0.4,0.6c0.1,0,0.2,0,0.2,0.1h0.1L85,12l0.1,0.1c-1,1.6-2.7,3.9-5,6.9c-1.5,2.1-2.7,3.9-3.6,5.5c-0.1,0-0.3,0.5-0.7,1.2
	c-0.1,0-0.2,0.2-0.2,0.5c-0.2,0-0.3,0.2-0.4,0.7h-0.1L75,26.9c0,0-0.1,0.2-0.2,0.4c0,0.1,0.1,0.1,0.1,0.2c-0.2,0.1-0.5,0.5-1.1,1.3
	c-0.5,0.6-0.7,1-0.7,1.2c-0.2,0-0.9,1.4-2.1,4.1l-0.2,0.6h-0.1v-0.1c0-0.2,0-0.3,0.1-0.6v-0.1h-0.1c-0.2,0.9-0.3,1.9-0.4,2.9h-0.1
	c-0.5-1-0.7-2.1-0.7-3.4v-1c0-0.9,0.1-1.6,0.3-1.9l-0.1-0.1l1-2.6c0.2-0.4,0.4-0.7,0.4-0.9c1.4-2.6,2.2-4.1,2.5-4.5
	c0-0.2-0.1-0.3-0.2-0.3c-1.2,2.1-2.2,4-3,5.7c-0.1,0-0.1,0.1-0.1,0.3h-0.1c0.2-0.6,0.3-1,0.3-1c-0.2,0-0.4,0.4-0.6,1.3
	c0,0.1,0,0.2,0.1,0.4l-0.6,2.1h-0.1c0-0.2,0.1-0.7,0.3-1.5v-0.1h-0.1c-0.3,1-0.5,1.5-0.6,1.5H69l0.1-0.4V30c0-0.1,0.1-0.1,0.1-0.1
	c0,0,0-0.1-0.1-0.1c0-0.5,0.2-1.2,0.6-2.1v-0.1h-0.1c0,0.2-0.1,0.3-0.2,0.3h-0.1c0.3-0.8,0.8-1.9,1.6-3.4v-0.1H71
	c-0.1,0.3-0.2,0.5-0.3,0.5c-0.1,0-0.1,0-0.1-0.1l1.5-2.8l0.5-0.8c-0.4-0.6-0.6-1-0.6-1.1c0,0,0-0.1,0.1-0.1
	c-0.1-0.3-0.2-0.4-0.3-0.4c0,0,0,0.1-0.1,0.1c-0.3-0.5-0.5-0.9-0.5-1v-0.1l0.1-0.2v-0.1c-0.1,0-0.2-0.3-0.5-0.8
	c-0.5-0.8-0.7-1.2-0.7-1.3H70v0.1c0.1,0.2,0.2,0.4,0.2,0.6v0.1c0,0.1-0.2,0.2-0.4,0.2c0,0,0.1,0.1,0.4,0.3l-0.2,0.2V18l0.2-0.1
	c0.1,0,0.1,0.1,0.2,0.4v0.2c0.1,0,0.2,0,0.2,0.1c0,0.1-0.1,0.1-0.1,0.2c0.1,0,0.4,0.6,0.9,1.7h-0.1c-0.5-0.4-1.1-1.1-1.8-2.1
	c-1.5-1.7-2.8-3.4-4-5v-0.2c0-0.1,0.1-0.1,0.1-0.1s0.2,0,0.6,0.1v0.1h-0.1c0,0.1,0.1,0.1,0.1,0.1c0.1-0.2,0.2-0.2,0.2-0.2v-0.2
	c-0.1,0-0.2,0-0.6,0.1v-0.1c0.3-0.2,0.6-0.2,0.9-0.2h0.4l-0.1-0.1v-0.1c0,0,0.2,0.1,0.5,0.4H68v-0.1c-0.1,0-0.2-0.1-0.3-0.3V12h0.1
	v0.1h0.3c0-0.2,0.4-0.3,1.1-0.4l-0.1-0.1c0.2-0.3,0.3-0.5,0.3-0.5c0.4,0.4,1.1,1.7,2.1,4c0.4,0.6,0.8,1.3,1.1,2.1h0.1l-0.1,0.1v0.1
	c0.1,0.2,0.2,0.3,0.2,0.4h-0.1l0.4,0.8L73,18.6c0,0,0-0.1-0.1-0.1c0,0.1,0,0.1-0.1,0.1c0.4,0.2,0.6,0.4,0.6,0.6c0,0-0.1,0-0.1,0.1
	c0.1,0,0.2,0.2,0.2,0.4v0.2c0.1,0,0.2,0,0.2,0.1c1.1-1.5,2.1-3.1,3-4.6l0.2-0.2c0.1,0,0.1,0,0.1,0.1c-0.1,0-0.1,0.1-0.2,0.1l0.1,0.1
	c-0.2,0.1-0.5,0.5-0.8,1.1h-0.1l0.1,0.1c-0.6,0.6-1.1,1.5-1.8,2.6c-0.1,0-0.2,0.2-0.4,0.5l-0.4,0.6v0.2h0.1c0.5-0.8,1.9-3.1,4.4-6.9
	c0.7-1.1,1-1.8,1.1-2.2c0,0-0.1,0-0.1-0.1c0.2,0,0.3-0.3,0.5-0.8h0.1c0.1,0,0.1,0.1,0.1,0.2H80v-0.8l0.2-0.2h0.3
	c0.1,0,0.1,0.1,0.1,0.2c-0.1,0.3-0.3,0.6-0.5,0.8l0.1,0.2c-0.1,0-0.3,0.2-0.5,0.6c0.2,0.1,0.4,0.1,0.4,0.1c0.1-0.3,0.6-1,1.2-2V8.5
	c0-0.1,0.1-0.1,0.1-0.1C81.7,8.4,81.8,8.4,81.8,8.4z M66.5,13.6c0,0.1,0.1,0.1,0.1,0.1c0.1,0,0.1,0,0.1-0.1s0-0.1-0.1-0.1h-0.1V13.6
	z M67.3,14.6L67.3,14.6L67.3,14.6c0-0.3-0.2-0.5-0.3-0.6h-0.1C67,14.4,67.1,14.6,67.3,14.6z M67.3,13c0,0.1,0.1,0.1,0.1,0.1h0.1
	v-0.1c0-0.1,0-0.1-0.1-0.1L67.3,13L67.3,13z M67.8,15.2L67.8,15.2c0-0.1,0-0.2-0.1-0.2h-0.1C67.6,15.1,67.7,15.2,67.8,15.2z
	 M67.7,13.6h0.1v-0.1L67.7,13.6L67.7,13.6z M67.8,13.8c0,0.1,0.1,0.1,0.1,0.1H68v-0.2L67.8,13.8L67.8,13.8z M67.8,15.5l0.1,0.1h0.1
	v-0.1c0,0-0.1,0-0.2-0.1L67.8,15.5z M68,14.1L68,14.1c0.1,0,0.2,0,0.2-0.1H68V14.1z M68.3,14.6c0,0.1,0.1,0.1,0.2,0.2h0.1v-0.1
	c-0.1-0.2-0.1-0.2-0.2-0.2h-0.1V14.6z M68.5,16.2h0.2c0-0.1-0.1-0.2-0.3-0.2C68.5,16.1,68.5,16.1,68.5,16.2z M68.6,15
	c0,0.1,0.1,0.1,0.1,0.1h0.1C68.8,15.1,68.8,15,68.6,15L68.6,15z M68.7,16.4v0.1l0.3,0.1v-0.1c0-0.1-0.1-0.2-0.2-0.2L68.7,16.4z
	 M69.1,16.9L69.1,16.9l0.1-0.1H69C69,16.8,69.1,16.9,69.1,16.9z M69.1,12.2h0.2v-0.1h-0.2V12.2z M69.4,17.2L69.4,17.2l0.1-0.1h-0.2
	C69.3,17.1,69.3,17.2,69.4,17.2z M69.5,12.7L69.5,12.7L69.5,12.7c0.1-0.1,0-0.2-0.1-0.2h-0.1C69.3,12.6,69.4,12.6,69.5,12.7z
	 M69.5,15.6c0.2,0.2,0.2,0.4,0.2,0.4h0.1V16C69.6,15.7,69.5,15.6,69.5,15.6L69.5,15.6z M69.7,29.4v-0.1h-0.1
	C69.6,29.3,69.6,29.4,69.7,29.4z M69.8,16.2c0,0.1,0.1,0.1,0.1,0.2H70v-0.1C69.9,16.2,69.9,16.2,69.8,16.2L69.8,16.2L69.8,16.2z
	 M70,18.4h0.1v-0.1L70,18.4L70,18.4z M70.3,26.9L70.3,26.9l0.1-0.1h-0.1V26.9z M70.6,19c0.1,0.1,0.1,0.2,0.1,0.3h0.1v-0.1
	c0-0.2-0.1-0.4-0.2-0.4V19z M70.8,34L70.8,34l0.1-0.2h-0.1V34z M70.9,32.4L70.9,32.4l0.1-0.1h-0.1V32.4z M71.6,23.4
	c0,0.1-0.1,0.1-0.2,0.2c0,0.1,0.1,0.1,0.1,0.2c-0.2,0.4-0.4,0.6-0.4,0.7v0.1h0.1c0.1-0.2,0.2-0.4,0.4-0.6l-0.1-0.1
	c0,0,0.1-0.2,0.2-0.4v-0.1h-0.2L71.6,23.4z M71.3,18.9L71.3,18.9l0.1-0.1h-0.1V18.9z M71.3,25c0.1,0,0.1-0.1,0.2-0.2h-0.1
	C71.3,24.8,71.3,24.8,71.3,25L71.3,25z M71.4,19.2L71.4,19.2l0.1-0.1h-0.1V19.2z M71.6,24.8c0,0,0-0.1,0.1-0.2
	c0-0.1-0.1-0.2-0.1-0.2l-0.2,0.1C71.5,24.7,71.6,24.8,71.6,24.8z M71.8,23.2c0.1,0,0.2-0.1,0.2-0.4H72C71.8,22.9,71.7,23,71.8,23.2
	L71.8,23.2z M71.7,24.3l0.1,0.1l0.1-0.1l-0.1-0.1c0.1,0,0.1-0.1,0.2-0.2c0,0,0-0.1-0.1-0.1l0.1-0.1v-0.1H72
	C71.8,24,71.7,24.2,71.7,24.3z M71.8,23.7L71.8,23.7L71.8,23.7c0.1,0,0.1,0,0.1-0.1v-0.1h-0.1C71.8,23.5,71.8,23.6,71.8,23.7z
	 M72.5,22L72.5,22c-0.2,0.1-0.3,0.2-0.4,0.6H72c0,0.1,0.1,0.1,0.1,0.1l0.6-1.1v-0.1l-0.3,0.3L72.5,22z M72.3,23.6
	c0-0.2,0.1-0.5,0.4-0.9l0.2-0.3l-0.1-0.1c-0.5,0.7-0.7,1.1-0.7,1.2H72.3z M72.5,17.5c0,0.1,0.1,0.1,0.1,0.2h0.1v-0.2
	c0-0.1,0-0.1-0.1-0.1V17.5z M72.6,22.2L72.6,22.2c0.1-0.1,0.1-0.2,0.2-0.2v-0.1C72.7,21.9,72.6,22,72.6,22.2L72.6,22.2z M72.9,22.1
	l0.1,0.1l0.1-0.3H73L72.9,22.1z M73.5,20.2L73.5,20.2l0.1-0.1h-0.1V20.2z M76.3,18c-0.1,0-0.3,0.4-0.8,1.1c-0.1,0-0.1,0.1-0.2,0.4
	c-0.2,0.3-0.4,0.6-0.6,0.8l0.1,0.1v0.1c-0.2,0-0.3,0.2-0.5,0.6l0.1,0.1c-0.1,0.1-0.1,0.3-0.1,0.4v0.1c2-3,3-4.7,3.2-5.1
	c0.1-0.1,0.2-0.2,0.3-0.4h0.1l-0.1-0.1v-0.1c0.3-0.3,0.6-0.8,0.9-1.4h-0.1c-0.2,0-0.5,0.3-0.7,0.9c-0.4,0.7-0.6,1-0.7,1
	C77,16.7,76.7,17.2,76.3,18C76.3,17.9,76.3,17.9,76.3,18z M76.6,23.4L76.6,23.4l0.1-0.1h-0.1V23.4z M78.6,20.5v-0.1
	c-0.1,0-0.1,0-0.1,0.1H78.6z M78.6,14.2c0,0.1,0.1,0.1,0.1,0.1l0.6-0.9c0-0.1-0.1-0.2-0.1-0.2c-0.1,0-0.1,0.1-0.2,0.4
	c-0.2,0-0.3,0.1-0.3,0.4c-0.1,0-0.2,0-0.2,0.1V14.2z M79.3,11.7c0,0.1,0,0.1-0.1,0.1H79c0-0.1,0.1-0.1,0.1-0.1H79.3z M79.1,17.8
	L79.1,17.8l0.1-0.1h-0.1V17.8z M79.3,17.6L79.3,17.6l0.1-0.1h-0.1V17.6z M79.4,17.4c0.1,0,0.1,0,0.1-0.1v-0.1
	C79.4,17.3,79.4,17.3,79.4,17.4L79.4,17.4z M79.5,13L79.5,13L79.5,13c0.1,0,0.1-0.1,0.2-0.2v-0.1h-0.1L79.5,13z M79.6,17.2
	c0.1,0,0.1,0,0.1-0.1V17C79.6,17,79.6,17,79.6,17.2L79.6,17.2z M79.8,12.6c0.1,0,0.1,0,0.1-0.1v-0.1C79.8,12.4,79.8,12.5,79.8,12.6
	L79.8,12.6z M79.8,16.9L79.8,16.9l0.1-0.1h-0.1V16.9z M80.1,16.5L80.1,16.5l0.1-0.1h-0.1V16.5z M80.2,16.3L80.2,16.3l0.1-0.1h-0.1
	V16.3z M80.3,16.1L80.3,16.1l0.1-0.1h-0.1V16.1z M81.2,14.9c0.1,0,0.2-0.1,0.2-0.2h-0.1C81.3,14.7,81.3,14.7,81.2,14.9L81.2,14.9z
	 M81.6,14.6c0.1,0,0.1-0.1,0.2-0.2v-0.1C81.7,14.3,81.6,14.4,81.6,14.6L81.6,14.6z M81.9,14.2c0.1,0,0.1,0,0.1-0.1V14
	C81.9,14,81.9,14,81.9,14.2L81.9,14.2z"/>
<path class="st0" d="M102.9,10.4c0.1,0,0.4,0.3,0.9,1c-0.1,0-0.1,0-0.1,0.1c0.1,0.1,0.1,0.4,0.2,0.9l0.1-0.1h0.1
	c0,2.5-0.2,4.6-0.5,6.3c0,0,0,0.1,0.1,0.1c0,0.1,0,0.2-0.1,0.4c0,0,0,0.1,0.1,0.1c-0.2,1.2-0.5,3-0.9,5.4h0.1l-0.1,0.1
	c0,0,0.1,0,0.1,0.1l0.1-0.1c0.3,0,0.4,0.1,0.4,0.1l0.1-0.1h0.1c1.7,0.6,2.6,0.9,2.8,0.9v0.1h-0.5l-0.4-0.1h-0.1v0.1l1.6,0.3v0.1
	l-0.1,0.1l0.4,0.1v0.2h-0.1c-0.3,0-0.8,0-1.4-0.1c-0.2,0.1-0.8,0.2-1.6,0.4h-1v0.2c-0.2,0-0.6,0-1,0.1v0.1h0.1c0.1,0,0.2,0,0.3-0.1
	c0.1,0,0.2,0.1,0.3,0.1v0.1c-0.6,0.1-0.9,0.2-0.9,0.4v0.4c-0.3,0-0.5,0.1-0.5,0.4c0,0-0.5,1.5-1.5,4.4c-0.3,1.1-0.7,1.9-1.1,2.6
	c-0.3,0.7-0.6,1.5-1,2.2V38h-0.1l-0.1-0.1c0,0.1-0.1,0.1-0.1,0.2h-0.1l-0.1-0.1c0,0.3-0.2,0.8-0.7,1.4h-0.1v-0.1
	c0.6-2.3,0.9-3.6,0.9-3.8v-0.1h-0.1L97,37.2h-0.1v-0.1c0.4-1.4,0.6-2.2,0.6-2.3l-0.1-0.4c1-3.3,1.4-5.6,1.4-6.9l-0.1-0.1
	c-0.3,0-0.4,0.6-0.5,1.8c-0.1,1-0.2,1.7-0.5,2.1h-0.1c0,0,0-0.1,0.1-0.2c0-0.5,0-1.4,0.1-2.8c0-0.6-0.1-0.9-0.3-0.9h-1.2
	c-0.1,0-0.1,0-0.1-0.1l0.1-0.2c0.3,0.1,0.5,0.1,0.7,0.1c0.5,0,0.7-0.1,0.7-0.2L97,26.9c-0.2,0-0.6,0-1.4,0.1l-0.1-0.1
	c0.2-0.1,0.3-0.1,0.5-0.1v-0.1c-0.3,0-0.5-0.1-0.7-0.2c-0.2,0-0.3-0.1-0.4-0.2l0.1-0.1v-0.1h-0.3c-0.1,0-0.1,0-0.1-0.1l0.2-0.2h-0.1
	v-0.1h0.1v-0.1h-0.2v-0.1h0.1v-0.1c-0.2,0-0.3-0.1-0.3-0.3h-0.8v-0.1l0.4-0.1v-0.1h-0.5c0-0.3,0.2-0.5,0.5-0.7c0.3,0,0.9,0,1.9-0.1
	c0.8,0,1.4,0.1,1.7,0.1c0,0.1,0,0.1,0.1,0.1h0.2V24H98l0.3,0.1v0.1l-0.1,0.1h0.2L98.3,24c0.3-0.7,0.5-1.9,0.7-3.6c0,0,0.1,0,0.1-0.1
	L99,20.2l0.1-0.3c0,0-0.1,0-0.1-0.1c0,0,0.1-0.1,0.2-0.2l-0.1-0.1c0-0.2,0-0.3,0.1-0.5c0-0.1-0.1-0.2-0.1-0.2h0.1c0,0,0-0.1-0.1-0.1
	c0.1-0.7,0.2-1.1,0.3-1.1l-0.1-0.1v-0.1h0.1c-0.1-0.1-0.1-0.2-0.1-0.2c0-0.2,0.1-0.4,0.2-0.6v-0.6c-0.3,0-0.6,0.3-0.8,0.8
	c-0.1,0-0.1,0-0.1,0.1l-0.1-0.1l-0.4,0.4l0.1,0.1c0,0.2-0.2,0.2-0.5,0.2V18c0,0.1,0,0.1-0.1,0.1c-0.1,0-0.2-0.1-0.3-0.1v0.4
	c0,0.1,0,0.1-0.1,0.1h-0.1l0.1-0.1v-0.1h-0.1c0,0.1,0,0.2-0.1,0.2l0.1,0.1c-0.1,0.2-0.2,0.4-0.2,0.4c0,0,0-0.1-0.1-0.1l0.1-0.1v-0.1
	h-0.1l-0.6,0.8l0.1,0.1v0.1c0,0.1-0.1,0.1-0.2,0.2l-0.1-0.1c-0.7,0.9-1,1.5-1,1.8c0,0-0.2,0.3-0.5,0.7h-0.1l0.1-0.4
	c-0.4,0.4-0.5,0.6-0.5,0.8c0,0,0.1,0,0.1,0.1c-0.1,0-0.1,0.1-0.2,0.1v0.3c0,0.1,0,0.1-0.1,0.1v-0.2h-0.1v0.2c0,0,0.1,0,0.1,0.1
	c-0.2,0-0.4,0.3-0.6,0.9c-0.2,0.4-0.4,0.8-0.5,1.1c-0.2,0.3-0.4,1-0.5,2.2v0.2c0,0.1,0,0.1-0.1,0.1c0.1,0.1,0.1,0.3,0.1,0.4v0.1
	c0,0.1-0.1,0.1-0.2,0.2c0,0.7,0.2,1.1,0.5,1.1v0.1h-0.1v0.1c0.1,0,0.2,0,0.2,0.1h-0.3c0,0,0.2,0.3,0.7,0.8v0.1h-0.1
	c-0.1,0-0.4-0.4-1.1-1.1h-0.1v0.1c0.1,0,0.2,0.1,0.3,0.4c0.4,0.4,0.5,0.7,0.5,0.9v0.1h-0.1v-0.1l-0.1,0.1c0,0-0.2-0.2-0.7-0.7v0.1
	c0,0,0.1,0.2,0.3,0.4V31h-0.1c-0.7-0.8-1-1.5-1.1-2l-0.8-1.1h0.1c0.1,0,0.2,0.1,0.2,0.1c0-0.1-0.1-0.2-0.1-0.3h-0.1
	c0,0.1,0,0.1-0.1,0.1l-0.1-0.1l-0.1,0.1c-0.7-0.2-1-0.4-1-0.6c-0.1,0-0.1,0-0.1,0.1l0.1,0.2c0,0-0.1,0-0.1,0.1
	c0.3,0.4,0.7,0.6,0.9,0.6v0.1c0,0.1,0,0.1-0.1,0.1c-0.6,0-1-0.5-1.2-1.6v-0.1c0,0,0-0.1,0.1-0.1L88,26.2v-0.6c0,0,0-0.1,0.1-0.1
	c0,0,0-0.1-0.1-0.1c0.1-0.5,0.1-0.8,0.1-0.9c0-0.1-0.1-0.1-0.1-0.2l0.1-0.1l-0.1-0.1c0-0.1,0.1-0.1,0.1-0.1l-0.1-0.1
	c0-0.1,0.1-0.1,0.2-0.1l-0.1-0.2v-0.1c0.3-0.4,0.5-1,0.7-1.7c0.1,0,0.2-0.2,0.3-0.7c0.2-0.2,0.4-0.3,0.5-0.3v-0.1
	c-0.1,0-0.2,0-0.2-0.1c0.2-0.2,0.3-0.4,0.5-0.9c0.1,0,0.3-0.2,0.6-0.5c-0.1,0-0.2,0-0.2-0.1c0.3-0.1,0.4-0.3,0.4-0.6
	c0.8-1,1.2-1.6,1.2-1.6h0.1l-0.1-0.1v-0.1c0.1,0,0.2-0.1,0.3-0.4c0.3-0.2,0.5-0.3,0.5-0.4c0,0-0.1,0-0.1-0.1c0.1,0,0.2-0.2,0.5-0.6
	l0.3-0.1l-0.1-0.1v-0.1c0.2,0,0.3,0,0.4-0.1l-0.1-0.1c0-0.1,0.2-0.3,0.4-0.5h0.1l0.1,0.1v-0.1c0-0.1-0.1-0.2-0.1-0.2
	c0.1,0,0.2,0,0.3-0.1l0.1,0.1c0,0,0-0.1,0.1-0.1l-0.1-0.1v-0.1c0.4-0.3,0.6-0.5,0.6-0.6h0.1v0.1c0.1,0,0.1,0,0.1-0.1h-0.1v-0.1
	c0.2,0,0.3,0,0.3-0.1c-0.1,0-0.1,0-0.1-0.1l0.1-0.1c0.1,0,0.2,0.1,0.2,0.1l0.1-0.1h-0.1c0.1-0.3,0.2-0.5,0.4-0.5
	c0.1,0,0.1,0.1,0.2,0.1c0.3-0.3,0.5-0.5,0.5-0.6l-0.1,0.1h-0.1v-0.1l0.5-0.4c0.1,0,0.1,0,0.1,0.1c0,0-0.1,0-0.1,0.1h0.1
	c0-0.1,0-0.2,0.1-0.2h-0.1v-0.1c0-0.1,0.1-0.1,0.2-0.2h0.1v0.1c0.2-0.1,0.3-0.2,0.3-0.2c-0.1,0-0.1,0-0.1-0.1c0.1,0,0.1-0.1,0.1-0.2
	h0.1v0.1L98,10.7h0.1c0-0.1,0-0.2,0.1-0.2c0,0-0.1,0-0.1-0.1c0.1-0.2,0.5-0.4,1.1-0.6c0.1,0,0.5,0.1,1.2,0.2V9.8
	c0.1,0,0.2,0.1,0.2,0.1c0-0.1,0.3-0.2,1-0.3C102.3,9.8,102.7,10.1,102.9,10.4z M91.3,19.9c-0.5,0.6-1.1,1.7-1.8,3.4l-0.4,1.8
	c0,0.1,0.1,0.1,0.1,0.2l-0.1,0.1l0.1,0.1c0,0.1-0.1,0.2-0.1,0.2H89v-0.3c0-0.7,0.1-1.4,0.3-2h-0.1c-0.1,0-0.2,0.3-0.3,0.8
	c0,0,0.1,0,0.1,0.1c-0.1,0-0.1,0.1-0.2,0.4l0.1,0.1L88.7,25c0.1,0,0.2,0,0.2,0.1c-0.1,0-0.1,0-0.1,0.1v1.1c0.1,0.6,0.2,0.9,0.4,0.9
	c0-0.1,0-0.2,0.1-0.3c-0.1-0.3-0.2-0.5-0.2-0.5h0.1L89,26.4v-0.6c0.1,0,0.2,0.5,0.5,1.3h0.1V27c0-0.2,0-0.3-0.1-0.6
	c0.3-1.5,0.7-2.9,1.2-4.1c0.1,0,0.4-0.6,0.9-1.8c0.2-0.3,0.7-1,1.4-2.1v-0.1l-0.3,0.2v-0.1c1-1.4,2.2-2.8,3.5-4.2
	c0.1,0,0.2,0,0.2-0.1h0.2l0.1,0.3c0,0.1-0.1,0.1-0.1,0.2l2.1-2.1v-0.1h-0.1c-0.3,0-0.8,0.4-1.6,1.3c-0.1-0.1-0.1-0.2-0.1-0.2v-0.1
	c0.5-0.7,1.3-1.5,2.4-2.4l0.3-0.4h-0.1c-0.6,0.1-2.3,1.8-5.1,4.9c-0.8,1-1.9,2.4-3.2,4.2L91.3,19.9z M89.2,23.3c0,0,0.1,0,0.2,0.1
	v-0.1L89.2,23.3L89.2,23.3z M89.4,23.1c0,0,0-0.2,0.1-0.5c-0.1,0-0.2,0.1-0.3,0.4L89.4,23.1z M89.3,27.2h0.1c0-0.1,0-0.1-0.1-0.1
	V27.2z M89.5,27.5h0.1v-0.1h-0.1V27.5z M89.6,22.4l0.1,0.1l0.1-0.3h-0.1C89.6,22.2,89.6,22.3,89.6,22.4z M89.7,27
	c0,0.1,0.1,0.2,0.1,0.3h0.1c0-1.2,0.1-2.2,0.3-2.9v-0.1h-0.1C89.9,25.1,89.7,26,89.7,27z M89.8,21.7L89.8,21.7l0.2,0.1
	c0-0.1,0.1-0.2,0.1-0.2h-0.1C89.9,21.7,89.9,21.7,89.8,21.7z M89.8,20.8c0,0.1,0.1,0.1,0.1,0.1l0.1-0.2H90
	C89.9,20.7,89.9,20.7,89.8,20.8L89.8,20.8z M91.7,20.1c-0.8,1.2-1.3,2.4-1.7,3.6h-0.1C90.5,21.9,91.1,20.7,91.7,20.1L91.7,20.1z
	 M90,27.5L90,27.5l0.1-0.2H90V27.5z M90.2,24.2L90.2,24.2L90.2,24.2c0.1,0,0.1,0,0.1-0.1V24h-0.1C90.2,24.1,90.2,24.2,90.2,24.2z
	 M90.2,20.2c0.1,0,0.1,0,0.1-0.1h-0.1V20.2z M90.3,23.9L90.3,23.9l0.1-0.1h-0.1V23.9z M91,19.1L91,19.1c0.1-0.1,0.1-0.2,0.2-0.2
	v-0.1C91.1,18.7,91,18.8,91,19.1L91,19.1z M91.3,18.5c0.1,0,0.1,0,0.1-0.1v-0.1C91.4,18.3,91.3,18.3,91.3,18.5L91.3,18.5z
	 M91.6,18.1c0.1,0,0.2-0.1,0.3-0.2v-0.1C91.8,17.8,91.7,17.9,91.6,18.1L91.6,18.1z M91.9,19.7v0.1h-0.1L91.9,19.7L91.9,19.7z
	 M92,17.6c0.1,0,0.1,0,0.1-0.1v-0.1C92,17.4,92,17.5,92,17.6L92,17.6z M92.5,19c-0.2,0.2-0.3,0.4-0.3,0.4v-0.1
	c0.2-0.2,0.3-0.4,0.3-0.4V19z M92.8,18.6c-0.1,0.2-0.2,0.3-0.3,0.3v-0.1C92.5,18.7,92.6,18.6,92.8,18.6L92.8,18.6z M92.6,16.8
	c0.1,0,0.1,0,0.1-0.1v-0.1C92.7,16.6,92.6,16.7,92.6,16.8L92.6,16.8z M92.8,16.6c0.1,0,0.1,0,0.1-0.1v-0.1
	C92.9,16.4,92.8,16.4,92.8,16.6L92.8,16.6z M93.1,18.2L93.1,18.2c0.1-0.1,0.2-0.2,0.3-0.4v-0.1C93.4,17.7,93.2,17.9,93.1,18.2
	L93.1,18.2z M93.3,16c0.1,0,0.1-0.1,0.2-0.2v-0.1c-0.1,0-0.2,0.1-0.2,0.1V16z M93.5,17.7c0.1,0,0.1,0,0.1-0.1h-0.1V17.7z M93.7,17.4
	L93.7,17.4l0.1-0.1h-0.1V17.4z M93.9,17.2L93.9,17.2l0.1-0.1h-0.1V17.2z M94,14.7c0.1,0,0.1,0,0.1-0.1v-0.1
	C94.1,14.6,94,14.6,94,14.7L94,14.7z M94.5,16.4h0.1v-0.1L94.5,16.4L94.5,16.4z M94.8,13.9L94.8,13.9l0.1-0.1h-0.1V13.9z M94.9,16
	L94.9,16c0.2,0,0.2,0,0.2-0.1l-0.1-0.1C94.9,15.8,94.9,15.9,94.9,16z M95.1,15.7L95.1,15.7L95.1,15.7c0.1-0.1,0.1-0.1,0.2-0.1
	c0-0.1,0-0.1-0.1-0.1L95.1,15.7z M95.2,13.9L95.2,13.9l0.1-0.1h-0.1V13.9z M95.6,25.6h0.3v-0.1L95.6,25.6L95.6,25.6z M95.8,13.2
	c0.1,0,0.1,0,0.1-0.1h-0.1V13.2z M95.9,15.5L95.9,15.5c0.1,0,0.1-0.1,0.1-0.2h-0.1V15.5z M95.9,26.5h0.2v-0.1L95.9,26.5L95.9,26.5z
	 M96.3,14.9l-0.2-0.1H96v0.1c0.1,0.2,0.1,0.2,0.2,0.2c0.1,0,0.2-0.1,0.4-0.4h-0.1C96.5,14.8,96.4,14.9,96.3,14.9z M96.6,11.8
	c0,0.1,0,0.1-0.1,0.1v-0.1H96.6z M96.7,24.3H97v-0.1L96.7,24.3L96.7,24.3z M97.1,11.6L97.1,11.6l0.1-0.1h-0.1V11.6z M97.6,24.3h0.6
	v-0.1L97.6,24.3L97.6,24.3z M97.6,38L97.6,38l0.1-0.1h-0.1V38z M97.6,37.7L97.6,37.7L97.6,37.7c0.1,0,0.1,0,0.1-0.1v-0.1h-0.1
	C97.7,37.6,97.7,37.7,97.6,37.7z M98.1,27.2C98.1,27.2,98.1,27.2,98.1,27.2h0.4h0.2v-0.1h-0.6V27.2z M98.7,23.3L98.7,23.3l0.1-0.1
	h-0.1V23.3z M98.7,25.7h0.2v-0.1L98.7,25.7L98.7,25.7z M98.7,26.5h0.1v-0.1L98.7,26.5L98.7,26.5z M98.9,12.3c0.1,0,0.2-0.2,0.5-0.5
	h-0.3C99.1,11.8,99,11.9,98.9,12.3L98.9,12.3z M98.9,23.7L98.9,23.7L98.9,23.7l0.3-0.9v-0.1h-0.1C99.1,22.8,99,23.1,98.9,23.7z
	 M100.6,14.7c-0.1,0.4-0.4,2.3-0.9,5.5c0,0-0.1,0.4-0.3,1.2l0.1,0.1c0,0.3-0.1,0.4-0.2,0.4c0,0,0,0.1,0.1,0.1
	c-0.1,0.7-0.2,1.1-0.3,1.1l0.1,0.1c-0.1,0.3-0.2,0.6-0.2,1h0.3L100,21h0.1c0,0,0,0.1,0.1,0.1c-0.3,1.7-0.5,2.7-0.5,3v0.1h0.1l1-6.1
	l-0.1-0.1c0.1-0.4,0.3-1.7,0.6-3.8c-0.2,0-0.4,0.2-0.7,0.5L100.6,14.7z M99.1,22.5L99.1,22.5l0.1-0.2h-0.1V22.5z M99.5,11.6v0.1
	c0.1,0,0.1-0.1,0.2-0.2v-0.1h-0.1C99.6,11.6,99.5,11.6,99.5,11.6z M99.7,18.3l-0.1,0.3c0.1,0,0.2,0,0.2,0.1h0.1c0-0.2,0-0.4,0.1-0.7
	l-0.3,0.1L99.7,18.3z M99.6,19.6L99.6,19.6l0.1-0.1h-0.1V19.6z M99.7,17.3l0.1,0.1h0.1v-0.2c0-0.1,0-0.2,0.1-0.2v-0.1H100L99.7,17.3
	z M99.8,16.6h0.2l0.1-0.3c-0.1,0.1-0.2,0.1-0.3,0.1V16.6z M100.2,16v-0.3c-0.1,0-0.2,0.1-0.3,0.2C99.9,15.9,100,15.9,100.2,16z
	 M100.2,15.3L100.2,15.3l0.1-0.4c-0.1,0.1-0.2,0.1-0.3,0.1C100.1,15.1,100.2,15.2,100.2,15.3z M100,16.2L100,16.2l0.1-0.1H100V16.2z
	 M100.2,15.5L100.2,15.5l0.1-0.1h-0.1V15.5z M100.5,10.2h0.2v0.1h-0.1v0.1c0.2-0.1,0.3-0.2,0.4-0.2c0-0.1-0.1-0.1-0.1-0.2
	L100.5,10.2L100.5,10.2z M101.2,10.6l0.3,0.1v-0.1L101.2,10.6L101.2,10.6z M101.3,28h0.1v-0.1h-0.1V28z M101.4,9.8h0.1V9.7
	L101.4,9.8L101.4,9.8z M101.7,10h0.2V9.9h-0.3C101.6,9.9,101.6,10,101.7,10z M106.8,26.2h0.1v-0.1L106.8,26.2L106.8,26.2z"/>
<path class="st0" d="M116.9,9.6l0.3,0.2c0.2-0.1,0.4-0.1,0.6-0.1c1.3,0,2.1,0.1,2.4,0.1c0.1,0,0.1-0.1,0.2-0.1
	c0,0.1,0.1,0.1,0.1,0.2c0.1-0.1,0.3-0.1,0.4-0.1c0,0,0.4,0.2,1.1,0.3c0-0.1,0.1-0.1,0.1-0.2h0.1l0.2,0.1h0.2c0.6,0.2,1,0.3,1.2,0.6
	l0.1-0.1c0.2,0.1,0.4,0.2,0.6,0.3c0,0,0-0.1,0.1-0.1c1.6,1.3,2.4,2.7,2.4,4.3v0.2c-0.1,0.1-0.4,0.6-0.7,1.5
	c-0.7,0.9-1.2,1.4-1.6,1.6l-0.6,0.8c0,0.1-0.1,0.1-0.3,0.1l0.1,0.1c0,0-0.1,0-0.1,0.1l-0.1-0.1h-0.1v0.1c0,0.1,0.1,0.1,0.1,0.2h-0.1
	v-0.2h-0.1c0,0.1-0.8,0.6-2.4,1.6c-0.7,0.4-1.1,0.6-1.2,0.6l-0.4,0.2H119v-0.1c-0.1,0-0.1,0-0.1,0.1c-0.1,0-0.2-0.1-0.2-0.1
	c-1,0.4-1.5,0.6-1.6,0.6c0-0.1,0.5-0.4,1.6-0.8v-0.1h-0.3c0,0,0,0.1-0.1,0.2l-0.1-0.1c-0.7,0.2-1.5,0.5-2.4,0.6v0.1
	c0.2,0,0.4,0.1,0.6,0.4c0.1,0,0.1-0.1,0.2-0.1c1.3,0.5,2.3,1.1,3,1.8h-0.1c-1.2-0.7-1.8-1.1-1.9-1.1h-0.1v0.1c0.3,0,0.7,0.2,1.1,0.6
	v0.1c-0.1,0-1-0.4-2.6-1.3l-0.6-0.2h-0.1v0.1c1.2,0.5,2.4,1.3,3.7,2.2c2.1,1.7,3.1,2.9,3.1,3.7l-0.1,0.3c0.4,0.5,0.6,1,0.6,1.4v0.1
	h-0.1c-0.1-0.3-0.3-0.5-0.6-0.8v0.2c0.2,0.2,0.4,0.6,0.5,1.1h-0.1c-0.1,0-0.2-0.2-0.3-0.7h-0.1v0.2c0,0.4,0.1,1.1,0.2,2.1
	c0,0.1-0.1,0.2-0.1,0.2v0.4c0,0.1,0,0.1-0.1,0.1c-0.2-0.2-0.7-1.1-1.6-2.8c-0.2-0.6-1.1-1.5-2.6-2.9c-0.9-0.8-1.5-1.2-1.9-1.2
	c-2.5-1.3-3.9-2-4.1-2c-0.1,0.2-0.2,0.4-0.4,0.6c0.1,0,0.1,0,0.1,0.1v0.1h-0.1c-0.1,0-0.1-0.1-0.2-0.1c0-0.1,0-0.2,0.1-0.4v-0.1
	h-0.1c-0.6,1.3-1,2-1.2,2.2l-0.1-0.1c-0.6,1.3-1.1,2.3-1.3,3.1c-0.2,0-0.3,0.3-0.4,0.9h-0.1v-0.2h-0.1c-0.5,1-0.7,1.5-0.7,1.6h-0.1
	v-0.2h-0.1c-0.3,1.2-0.6,1.9-0.8,2.1h-0.2c-0.1,0.3-0.2,0.5-0.2,0.5s-0.2-0.2-0.2-0.7c0.1-0.9,0.2-1.3,0.2-1.3l-0.1-0.1v-0.1
	c0.3-1.1,0.5-1.9,0.6-2.4l-0.2,0.1l-0.1-0.1c0.4-1.5,0.9-3,1.8-4.4v-0.1H108v0.1h-0.1v-0.1l0.2-0.6v-0.1h-0.1
	c-0.5,1.1-0.8,1.7-0.9,1.8v-0.1l0.1-0.1h-0.2l0.1,0.1c-0.2,0.5-0.2,0.8-0.2,0.9h0.1c0,0.1-0.2,0.6-0.6,1.6c-0.2,2-0.4,3-0.6,3
	l-0.1-0.1c0-0.1,0.1-0.1,0.1-0.2v-0.1h-0.1c-0.1,0.5-0.2,0.9-0.2,1h-0.1c0.2-1.8,0.4-3.1,0.7-3.9l-0.1,0.1h-0.1v-0.1l0.3-0.9
	c0-0.1-0.1-0.2-0.1-0.2l0.2-0.2l-0.1-0.1c0-0.1,0.1-0.5,0.3-1.1c0-0.1-0.1-0.1-0.1-0.2c0,0,0.1,0,0.2-0.1c0,0,0,0.1,0.1,0.1v-0.2
	l0.1,0.1l0.1-0.1v-0.2l-0.1,0.1v-0.1c0.2-0.7,0.4-1.1,0.5-1.1c0.1-0.2,0.1-0.3,0.1-0.4c-0.1,0-0.1,0-0.1-0.1l0.1-0.2
	c-0.2,0-0.4-0.1-0.4-0.2v-0.1c0,0,0.2,0,0.4-0.1l-0.1-0.1l-0.1,0.1h-0.1c-0.1-0.1-0.2-0.1-0.4-0.1v-0.1h0.4v-0.2
	c-0.8-0.1-1.2-0.2-1.2-0.3v-0.2l0.1-0.1c-0.1,0-0.1,0-0.1-0.1c0.2-0.1,0.3-0.1,0.4-0.1v-0.1h-0.4c0-0.2-0.1-0.3-0.2-0.3l0.1-0.1
	c-0.4-0.2-1-0.4-1.9-0.6h-0.1v-0.1c0.5-0.1,0.8-0.2,1-0.2h0.1c0-0.1,0.1-0.2,0.4-0.2h0.6c0.1,0,0.2,0,0.2-0.1c0.1,0,0.2,0.1,0.2,0.1
	h0.2l0.6-0.1c0,0,0,0.1,0.1,0.1c0-0.1,0.1-0.1,0.1-0.1c0,0,0.1,0,0.1,0.1l0.1-0.1h0.1c0,0,0.1,0,0.1,0.1L108,20c0.1,0,0.2,0,0.2,0.1
	c0.3,0,0.5-0.2,0.5-0.7c0.2-0.1,0.3-0.2,0.4-0.2l-0.1-0.3c0.1,0,0.3-0.3,0.6-0.9c0.1,0,0.2-0.1,0.2-0.1v-0.2c0.1,0,0.2-0.2,0.4-0.5
	c0.2-0.3,0.5-0.4,0.6-0.4l-0.1-0.1v-0.1c0.3-0.4,0.4-0.6,0.4-0.6c0,0-0.1,0-0.1-0.1c0.2-0.1,0.3-0.2,0.4-0.2l-0.1-0.4l-0.5,0.4h-0.3
	v-0.1c0,0,0.5-0.3,1.4-0.8l0.1-0.1v-0.1c-0.1,0.1-0.6,0.3-1.4,0.4c0,0.1-0.1,0.1-0.2,0.2c0,0-0.2-0.2-0.6-0.7v-0.1
	c0.5-0.3,0.8-0.5,0.8-0.6h0.1c0,0,0.1,0,0.1,0.1c0.2-0.1,0.4-0.2,0.4-0.2v-0.1h-0.1c-0.5,0.2-1.2,0.3-1.9,0.3v-0.1
	c-0.5,0-0.8,0.1-0.8,0.1c-0.1,0-0.2-0.1-0.2-0.1v-0.1c0.2-0.2,0.4-0.4,0.6-0.4v-0.1h-0.1l-1.4,0.3c-0.1,0-0.2-0.1-0.2-0.1l-1.1,0.2
	v-0.1c0.1,0,0.4-0.2,1.1-0.5v-0.1H107c-1.4,0.6-2.2,0.9-2.3,0.9c0-0.1,0.1-0.2,0.3-0.3l-0.1-0.1v-0.1l0.4-0.1l0.1,0.1
	c1.1-0.7,3-1.5,5.6-2.5v-0.1h-0.1c-1.5,0.6-2.3,0.9-2.4,0.9l-0.1-0.1c-0.7,0.3-1.1,0.4-1.2,0.4c0.5-0.4,1.7-0.9,3.6-1.6
	c2.3-0.6,3.5-0.9,3.6-0.9c0,0,0,0.1,0.1,0.1l-0.1,0.1v0.2c0.1,0,0.3-0.2,0.6-0.5l0.6-0.1h0.8v0.1h-0.2v0.1l0.3,0.1
	c0-0.1,0.1-0.1,0.2-0.1V9.8h-0.2V9.6H116.9z M107.1,25.1L107.1,25.1l0.1-0.1h-0.1V25.1z M107.7,20.3L107.7,20.3l0.1-0.1h-0.1V20.3z
	 M107.7,24L107.7,24l0.1-0.1h-0.1V24z M109,19.9h0.1v-0.2h-0.1C109.1,19.6,109,19.7,109,19.9z M109.1,12.8h0.1
	c0.1,0,0.1-0.1,0.2-0.2v-0.1c-0.1,0.1-0.2,0.1-0.3,0.1V12.8z M109.4,14.1h0.1V14L109.4,14.1L109.4,14.1z M109.5,19.3L109.5,19.3
	l0.1-0.1h-0.1V19.3z M110.2,12.4c0.1,0,0.1,0,0.1-0.1v-0.1C110.2,12.3,110.2,12.3,110.2,12.4L110.2,12.4z M110.7,17.8L110.7,17.8
	l0.1-0.1h-0.1V17.8z M110.9,24.6L110.9,24.6l0.1-0.1h-0.1V24.6z M111.1,11.1h0.1v-0.1L111.1,11.1L111.1,11.1z M111.2,11.1
	L111.2,11.1c0.1,0,0.2-0.1,0.2-0.1v-0.1h-0.1C111.4,11,111.3,11,111.2,11.1L111.2,11.1z M111.6,10.9h0.1c0.3-0.1,0.5-0.2,0.6-0.2
	v-0.1h-0.1C111.9,10.8,111.7,10.9,111.6,10.9L111.6,10.9z M111.7,18.5L111.7,18.5l0.1-0.1h-0.1V18.5z M111.8,16.3L111.8,16.3
	l0.1-0.1h-0.1V16.3z M111.9,18.3L111.9,18.3c0.1,0.1,0.2,0,0.2-0.2V18H112C112,18.1,111.9,18.1,111.9,18.3z M112.2,15.8L112.2,15.8
	l0.1-0.1h-0.1V15.8z M112.2,19.2L112.2,19.2l0.1-0.1h-0.1V19.2z M112.4,10.7L112.4,10.7c1-0.2,1.7-0.4,1.9-0.4v-0.1h-0.1
	C114,10.3,113.4,10.4,112.4,10.7L112.4,10.7z M115.4,14.3L115.4,14.3c0.1-0.2,0.1-0.2,0.2-0.2v0.1l-0.1,0.1h0.4v0.1
	c0,0-0.2,0.1-0.6,0.2l0.1,0.1c0.2-0.1,0.4-0.1,0.5-0.1l0.1,0.1c-0.1,0-0.3,0.2-0.6,0.6v0.1h0.1c0.1,0,0.1-0.1,0.2-0.1v0.1
	c-0.2,0-0.2,0.1-0.2,0.2c0.1,0,0.2,0.1,0.2,0.2c0,0.1-0.1,0.1-0.1,0.2h0.1c0.2-0.2,0.4-0.3,0.5-0.3l-0.4,0.5h0.1
	c0.2-0.1,0.3-0.1,0.4-0.1v0.1l-0.1,0.2v0.1h0.1v0.1c-0.1,0-0.3,0.1-0.8,0.3v0.1h0.1c0.1,0,0.3-0.1,0.4-0.2h0.2v0.1
	c-0.2,0.4-0.4,0.6-0.4,0.7c0,0.1,0.1,0.1,0.1,0.2l-0.4,0.2c-0.1,0-0.1-0.1-0.1-0.2l-0.6,1.1c-0.4,0.5-0.7,0.9-0.9,1.1
	c-0.1,0.3-0.3,0.7-0.8,1.2v0.1c0,0.1,0.3,0.2,0.8,0.2c0.4,0,1.9-0.8,4.6-2.4c0.6-0.3,1.1-0.6,1.6-0.8l0.1-0.1h-0.1
	c-1.2,0.6-2,0.9-2.2,0.9h-0.1v-0.1c0.4-0.3,0.7-0.5,1-0.6l-0.1-0.1v-0.1c0.2,0,0.4-0.2,0.8-0.6c0.2,0,0.6-0.4,1.3-1.1
	c0-0.1-0.1-0.1-0.1-0.2c1-0.9,1.6-1.6,1.6-1.9l-0.2,0.1h-0.2c-0.1,0-0.1,0-0.1-0.1l-0.1,0.1c-0.3-0.1-0.6-0.1-0.7-0.2
	c0,0.1,0,0.1-0.1,0.1c-0.3-0.1-0.5-0.1-0.6-0.1h-0.2l-0.3,0.1l-0.1-0.1l-0.1,0.1c-0.1,0-0.4,0-0.9-0.1c-0.1,0-0.2,0.1-0.3,0.1
	l-0.1-0.1v-0.1c0-0.1,0.1-0.1,0.1-0.1c0,0.1,0.1,0.1,0.1,0.1c0,0,0.1-0.1,0.2-0.2c1,0.1,1.6,0.1,1.6,0.2c0,0-0.1,0-0.1,0.1h0.1
	c0.1,0,0.2-0.1,0.2-0.1c0-0.2-0.2-0.3-0.6-0.3l-0.3,0.1c0-0.1-0.1-0.1-0.1-0.2c-0.1,0-0.1,0-0.1,0.1l-0.1-0.1h-0.2l-0.1,0.1
	l-0.1-0.1l-0.3,0.1c-0.1,0-0.2,0-0.2-0.1c-0.2,0-0.4,0.1-0.6,0.1h-0.1c-0.3,0-0.7,0-1.2-0.1c-0.1,0-0.2,0.1-0.3,0.1v-0.1
	c-0.1,0-0.3,0.1-0.6,0.1V14.3z M113.2,14.4L113.2,14.4l0.1-0.2h-0.1V14.4z M114.2,21.8h0.1v-0.1L114.2,21.8L114.2,21.8z M114.4,14.1
	c0.1,0,0.2,0,0.2,0.1l0.1-0.1L114.4,14.1L114.4,14.1z M114.4,21.8h0.1c0.5,0,2-0.6,4.2-1.8v-0.1h-0.1
	C117.2,20.8,115.7,21.3,114.4,21.8L114.4,21.8z M115.1,14.9l-0.1-0.1c0,0.1,0,0.1-0.1,0.1l0.1,0.1c-0.2,0.3-0.4,0.4-0.4,0.4v0.1
	c0.5-0.5,0.8-0.7,0.8-0.7v-0.2h-0.1C115.2,14.8,115.2,14.8,115.1,14.9L115.1,14.9z M114.7,22.6h0.1v-0.1L114.7,22.6L114.7,22.6z
	 M115.2,12.8h0.1v-0.1L115.2,12.8L115.2,12.8z M115.2,15.9L115.2,15.9l0.1-0.1h-0.1V15.9z M115.5,21.3L115.5,21.3l1.1-0.4v-0.1
	C116.2,20.9,115.8,21.1,115.5,21.3L115.5,21.3z M115.7,12.8h0.2v-0.1L115.7,12.8L115.7,12.8z M115.8,21.9h0.1v-0.1L115.8,21.9
	L115.8,21.9z M116,9.9l0.1-0.1h-0.2C115.9,9.9,115.9,9.9,116,9.9z M117.8,12.6c-0.4,0-0.9,0-1.6,0.1v0.1h0.1
	C116.9,12.6,117.4,12.6,117.8,12.6l0.1,0.1c1.3,0,2.3,0.1,3.1,0.2h0.1v-0.1l-0.8-0.2c-0.1,0-0.1,0.1-0.2,0.1c0-0.1,0-0.1-0.1-0.1
	c0,0-0.1,0-0.2,0.1c-0.3,0-0.5-0.1-0.7-0.1h-0.2c0,0-0.1,0-0.1-0.1l-0.1,0.1H117.8z M116.6,21.6h0.1v-0.1L116.6,21.6L116.6,21.6z
	 M117.2,21.3h0.1v-0.1L117.2,21.3L117.2,21.3z M117.7,26.9L117.7,26.9L117.7,26.9c0.1-0.1-0.1-0.2-0.3-0.4h-0.1
	C117.4,26.6,117.5,26.8,117.7,26.9z M117.4,20.2h0.1v-0.1L117.4,20.2L117.4,20.2z M117.6,21.1L117.6,21.1c1.5-0.7,2.9-1.4,4.1-2.1
	v-0.1h-0.1L117.6,21.1L117.6,21.1z M118.6,27.7L118.6,27.7c-0.2-0.3-0.3-0.4-0.3-0.4h-0.1C118.4,27.6,118.5,27.7,118.6,27.7z
	 M118.7,10.8h0.2v-0.1L118.7,10.8L118.7,10.8z M120,18.4c0.5-0.3,0.8-0.5,0.8-0.5h-0.1l-0.7,0.4V18.4z M120.2,27.4
	c0,0.1,0.1,0.1,0.2,0.2v-0.1c0-0.1-0.1-0.1-0.2-0.2V27.4z M120.3,18.9L120.3,18.9c0.2-0.1,0.3-0.1,0.4-0.1v-0.1h-0.1
	C120.5,18.8,120.4,18.8,120.3,18.9L120.3,18.9z M120.4,14.2l1.9,0.4l0.1-0.1c0-0.1,0-0.1-0.1-0.1c0,0.1,0,0.1-0.1,0.1l-0.3-0.2
	l-0.1,0.1c0,0-0.1,0-0.1-0.1l-0.1,0.1l-0.2-0.1l-0.1,0.1c-0.1-0.1-0.4-0.2-0.8-0.2V14.2z M121.1,12.9c0.2,0,0.3,0.1,0.4,0.1h0.2
	v-0.1C121.6,12.9,121.4,12.9,121.1,12.9L121.1,12.9L121.1,12.9z M121.2,11.9h0.1v-0.1L121.2,11.9L121.2,11.9z M121.6,17.4
	c0.1,0,0.1-0.1,0.2-0.2h-0.1C121.6,17.2,121.6,17.2,121.6,17.4L121.6,17.4z M121.7,13h0.1v-0.1L121.7,13L121.7,13z M122,17.6
	c0.3-0.2,0.4-0.3,0.4-0.4h-0.1C122.1,17.5,121.9,17.6,122,17.6L122,17.6z M122.2,15.8c0.1,0,0.1-0.1,0.2-0.2v-0.1
	C122.4,15.5,122.3,15.6,122.2,15.8L122.2,15.8z M122.5,15.2L122.5,15.2l0.1-0.1h-0.1V15.2z M122.8,15.5c0-0.1,0-0.1,0.1-0.1v-0.1
	c-0.1,0-0.1,0.1-0.2,0.2H122.8z M122.9,14.6c0,0.1,0.1,0.1,0.1,0.1v-0.1C123.1,14.6,123,14.6,122.9,14.6L122.9,14.6z M123.4,14.8
	v-0.1c-0.1,0-0.1,0-0.1,0.1H123.4z"/>
<path class="st0" d="M140,8.7l-0.3,0v0.1h0.1c0.3-0.1,0.7-0.1,1-0.2l0.1,0.1c0.6-0.2,1.1-0.3,1.4-0.3v0.1c-0.4,0.1-0.6,0.1-0.7,0.1
	v0.1l0.1,0l1.2-0.2c0.5,0,1,0,1.5-0.1l0.8-0.1c0,0.2,0.8,0.3,2.5,0.2l1.8,0.1v0.1l-1.9,0.2V9l0.8-0.1V9c-0.7,0.1-2.6,0.4-5.6,0.8
	v0.1l1.4-0.1v0.1c-1.4,0.4-2.3,0.6-2.5,0.6v0.1l0.4,0c0.1,0,0.1-0.1,0.2-0.1v0.1c-0.3,0.2-1.1,0.5-2.4,0.8c0,0.1-0.2,0.2-0.6,0.3
	h-0.1v-0.1h-0.1c0,0.1-0.5,0.3-1.5,0.6c-0.3,0.2-0.4,0.3-0.4,0.4l0.1,0c0.2,0,0.4-0.1,0.6-0.4h0.1v0.1c0,0.1,0,0.1-0.1,0.1l0.1,0.1
	v0.1l-0.3,0l-0.5,0.6v0.1c0.1,0,0.5-0.3,1.2-0.8l0.1,0.1c-0.1,0.1-0.2,0.1-0.2,0.1v0.1l0.4,0v0.1c-0.3,0-0.8,0.5-1.6,1.4
	c-0.2,0-0.3,0.1-0.3,0.2c0.1,0,0.1,0,0.1,0.1c-0.3,0.6-0.5,0.9-0.8,1.1c0,0.1-0.1,0.3-0.3,0.6c0,0.1-0.2,0.4-0.5,0.9
	c0,0.2-0.1,0.2-0.2,0.3c0,0.1,0.1,0.1,0.1,0.2c-0.3,0.6-0.6,1-0.7,1c0,0.1,0.1,0.1,0.1,0.2c-0.1,0.2-0.2,0.4-0.4,0.4
	c-0.2,0.6-0.4,0.8-0.5,0.9v0.3c0,0.1-0.1,0.2-0.2,0.2l0.1,0.1v0.1c0,0.1-0.1,0.1-0.2,0.1c0,0.2,0.1,0.2,0.2,0.2
	c-0.2,0.2-0.3,0.3-0.3,0.5c0,0-0.1,0-0.1,0.1c0.1,0,0.1,0,0.1,0.1v0.1c0,0.1,0,0.1-0.1,0.1c0-0.1,0-0.1-0.1-0.1V22
	c-0.1,0-0.2,0-0.2,0.1l0.1,0.1c-0.2,0.8-0.3,1.2-0.5,1.2l0.1,0.1l-0.1,0.5c0,0,0.1,0,0.1,0c0,0-0.1,0-0.1,0.1c0.1,0,0.2,0,0.2,0
	c0,0.2-0.1,0.4-0.2,0.4l0.1,0.1l-0.2,0.4l0.1,0.1c0,0.2-0.1,0.3-0.3,0.3l0.1,0.1v0.1l-0.1,0l0.1,0.2v0.1l-0.2,0.3v0.1l0.1,0v0.1
	l-0.2,0.3c0.1,0,0.1,0,0.1,0.1V27c-0.2,0.2-0.2,0.4-0.2,0.5c0,0.1,0.1,0.1,0.1,0.2l-0.2,0v-0.2c0-0.5,0-0.8,0.1-1h-0.1
	c0,0.8-0.1,1.1-0.3,1.2c0,0.1,0.1,0.1,0.1,0.2c-0.1,0.3-0.1,0.5-0.1,0.6c0,0.1,0,0.3,0.1,0.6c0,0-0.1,0-0.1,0.1l0.1,0.1
	c-0.1,0.2-0.1,0.3-0.1,0.5c0.1,0.3,0.1,0.4,0.1,0.5c-0.1,0-0.1,0.1-0.1,0.1v0.1c0,0.2,0.2,0.5,0.6,0.8v0.1c-0.3-0.1-0.4-0.1-0.5-0.1
	v0.1l0.2,0.3h-0.1v0.1c0.2,0.3,0.4,0.5,0.4,0.7c-0.4,0-1.3-0.3-2.7-1c0.1,0,0.2-0.1,0.2-0.1c0-0.5-0.1-0.8-0.3-0.8v-0.1l0.1-0.1
	c-0.2-0.2-0.4-0.5-0.4-1c0-0.1,0.1-0.2,0.1-0.2c-0.1-0.1-0.1-0.2-0.1-0.2v-0.1c0.1,0,0.2-0.1,0.2-0.3v-1h-0.1c0,0.2,0,0.5-0.1,0.8
	c0,0,0.1,0,0.1,0.1l-0.1,0.1c-0.1-0.1-0.1-0.3-0.1-0.4l-0.1,0c0,0.5,0,0.7-0.1,0.7c0.1,0,0.2,0.6,0.4,1.8c0,0-0.2-0.3-0.5-1
	c-0.1,0-0.2,0-0.2-0.1l0.2,0v-0.1c-0.2,0-0.3,0-0.3-0.1v-0.1l0.2,0c-0.1-0.2-0.2-0.6-0.2-1.3c0-0.4,0.1-0.6,0.1-0.6
	c0-0.1-0.1-0.1-0.1-0.2c0-1.6,0.5-3.8,1.4-6.6c0.4-1.1,1-2.3,1.7-3.7l-0.2,0l0.1,0.1c0,0-0.1,0.2-0.3,0.3l0.1,0.1
	c-0.1,0.2-0.2,0.3-0.3,0.3c0,0.1,0.1,0.1,0.1,0.2c-0.2,0.6-0.5,1-0.7,1.2l0.1,0.1c-0.3,0.6-0.5,1-0.5,1.2c-0.2,0-0.6,1.3-1.3,3.9
	c-0.1,0.2-0.2,1-0.4,2.3c0,0,0,0.1,0.1,0.1c0,0.5-0.1,0.8-0.1,1.1v0.7l-0.1,0.3l-0.1,0l-0.2-1.1h0.1c0,0,0-0.1-0.1-0.1l0.1-0.3
	l-0.1-0.1c0-0.1,0.1-0.2,0.1-0.2l-0.1-0.1v-0.2c0.2-1.8,0.4-2.7,0.5-2.7c0,0,0-0.1-0.1,0c0.8-2.7,2-5.4,3.5-8.2l1.1-1.7
	c0,0-0.1,0-0.1-0.1c-0.1,0-0.3,0.1-0.5,0.2h-0.1c0,0-0.1,0-0.1,0c-0.4,0.1-0.7,0.2-0.9,0.4l-0.1,0c-0.1,0.1-0.4,0.2-0.9,0.4v-0.1
	l-1.4,0.6l-0.2,0c0,0-0.1,0-0.1-0.1c-0.2,0.1-0.3,0.2-0.3,0.3l-0.3,0l-0.3,0.2c0-0.1-0.1-0.1-0.1-0.2l-0.4,0.3v-0.1
	c-0.1,0-0.1,0.1-0.1,0.1c0,0,0.1,0,0.1,0.1h-0.1l-0.1,0c-0.2,0-0.4,0.1-0.6,0.2l-0.1,0l0.1-1l-0.4,0.4c-0.1,0-0.2-0.2-0.2-0.5
	c0.4,0,0.7-0.2,0.9-0.5c-0.1,0-0.1,0-0.1-0.1c-0.3,0.2-0.7,0.3-1.1,0.4c0,0,0-0.1-0.1-0.1l0.2-0.5h-0.1c-0.2,0.1-0.3,0.2-0.4,0.2
	l-0.1-0.2c0-0.1,0.3-0.3,0.9-0.7l0.1-0.1h-0.1l-0.6,0.5l-0.1-0.1c0-0.2,0.5-0.6,1.5-1.1h0.1v-0.1h-0.1c-1.5,0.6-2.5,1-3.1,1
	l-0.1-0.1c0.5-0.4,0.9-0.6,1.2-0.7v0.1c0.1,0,0.1-0.1,0.1-0.1c0,0-0.1,0-0.1-0.1c0.4-0.2,0.7-0.3,0.8-0.3h0.1v0.1l0.1,0v-0.1
	l-0.1-0.1c1.1-0.5,1.8-0.7,2.3-0.8l0.2,0l0.1,0c0.1-0.2,0.2-0.3,0.4-0.3v0.1h0.1v-0.1c0,0-0.1,0-0.1-0.1c0.4-0.2,1.1-0.5,2.2-0.8
	v0.1h0.1c0.4-0.2,0.7-0.3,0.8-0.5l0.2,0v0.1l-0.1,0.1l0.1,0c0.4-0.2,0.6-0.2,0.6-0.3l0.3,0l1.7-0.5c0,0.1,0.1,0.1,0.1,0.2
	c0.3-0.1,0.6-0.2,0.9-0.3c0.1,0,0.1,0,0.2,0l-0.1-0.1V9.4l0.2,0v0.1h0.1l5.2-0.9V8.7z M123.2,13.5L123.2,13.5
	c0.1-0.1,0.2-0.1,0.2-0.1v-0.1l-0.2,0L123.2,13.5z M125.8,12.1l0.1,0V12L125.8,12.1L125.8,12.1z M125.9,14.2L125.9,14.2
	c0.1,0,0.2,0,0.2-0.1V14l-0.1,0C125.9,14,125.9,14,125.9,14.2L125.9,14.2z M127.1,13.1l0.1,0v-0.1L127.1,13.1L127.1,13.1z M128,26
	L128,26l0.1-0.1H128V26z M128.1,28.4v0.1l-0.1,0L128.1,28.4L128.1,28.4z M128.2,11.3l0.1,0v-0.1L128.2,11.3L128.2,11.3z M128.2,26
	c0,0.1,0.1,0.1,0.1,0.2v0.6l0.1,0c0-0.4,0-0.6,0.1-0.6c0-0.1-0.1-0.2-0.1-0.2l-0.1,0C128.3,26,128.2,26,128.2,26z M128.2,27.2
	L128.2,27.2l0.1-0.4h-0.1V27.2z M128.3,25.6h0.1v-0.1L128.3,25.6L128.3,25.6z M128.3,25.8L128.3,25.8l0.1-0.1h-0.1V25.8z M128.8,27
	L128.8,27l0.1-0.2h-0.1V27z M128.8,26.4L128.8,26.4l0.1-0.1l-0.1,0V26.4z M129.4,21.8L129.4,21.8l0.1-0.1l-0.1,0V21.8z M129.4,21.6
	L129.4,21.6l0.1-0.2h-0.1V21.6z M129.6,24.2L129.6,24.2l0.1-0.1h-0.1V24.2z M129.6,13.3l0.1,0v-0.1L129.6,13.3L129.6,13.3z
	 M129.6,24L129.6,24l0.1-0.1h-0.1V24z M129.8,23.5L129.8,23.5L129.8,23.5l0.3-1v-0.1H130C129.8,23.1,129.8,23.4,129.8,23.5z
	 M129.9,13.3l0.2,0v-0.1L129.9,13.3L129.9,13.3z M130.1,13.2l0.2,0v-0.1L130.1,13.2L130.1,13.2z M130.1,22.2L130.1,22.2l0.1-0.2
	h-0.1V22.2z M130.3,21.9L130.3,21.9l0.1-0.1l-0.1,0V21.9z M130.4,13.1l0.2,0V13L130.4,13.1L130.4,13.1z M130.5,16.6L130.5,16.6
	c0.1,0,0.3-0.3,0.6-0.9v-0.1l-0.5,0.7l-0.1,0C130.5,16.5,130.5,16.6,130.5,16.6z M130.7,13l0.2,0v-0.1L130.7,13L130.7,13z
	 M130.9,12.9l0.2,0v-0.1L130.9,12.9L130.9,12.9z M131.1,26.1l0.1,0c0-0.1,0-0.3,0.1-0.4v-0.1h-0.1C131.3,25.7,131.2,25.9,131.1,26.1
	z M131.1,26.4L131.1,26.4l0.1-0.2h-0.1V26.4z M131.2,12.8l0.2,0v-0.1L131.2,12.8L131.2,12.8z M131.2,15.4c0.1,0,0.1-0.1,0.1-0.1
	l-0.1,0V15.4z M131.4,12.8l0.2,0v-0.1L131.4,12.8L131.4,12.8z M131.5,14.9c0.1,0,0.1-0.1,0.2-0.3h-0.1c-0.1,0-0.1,0.1-0.1,0.1V14.9z
	 M131.7,12.7l0.2,0v-0.1L131.7,12.7L131.7,12.7z M131.7,24.9l0.1,0v-0.1L131.7,24.9L131.7,24.9z M131.8,14.3c0.1,0,0.2-0.1,0.2-0.3
	V14H132c-0.1,0.1-0.1,0.1-0.2,0.1V14.3z M132,12.6l0.2,0c0.1,0,0.2-0.1,0.2-0.1v-0.1h-0.1L132,12.6L132,12.6z M132,14L132,14
	c0.1,0,0.2,0,0.2-0.1v-0.1l-0.1,0C132.1,13.8,132,13.8,132,14L132,14z M132.8,10.2h0.1v-0.1L132.8,10.2L132.8,10.2z M133.3,10.1
	l0.2,0V10L133.3,10.1L133.3,10.1z M134.1,18.3L134.1,18.3l0.1-0.1h-0.1V18.3z M134.1,18.7L134.1,18.7l0.1-0.1h-0.1V18.7z
	 M134.8,17.1L134.8,17.1l0.1-0.1l-0.1,0V17.1z M137.6,11.1c0.6-0.2,2.3-0.5,5.1-1.1V9.9l-0.2,0C139.9,10.5,138.3,10.8,137.6,11.1
	L137.6,11.1z M137.6,11.9h0.1v-0.1L137.6,11.9L137.6,11.9z M138.3,11.7l0.1,0v-0.1L138.3,11.7L138.3,11.7z M138.9,11.2l0.2,0v-0.1
	L138.9,11.2L138.9,11.2z M139.5,8.9h0.1V8.8L139.5,8.9L139.5,8.9z M140.5,10.9l0.2,0v-0.1L140.5,10.9L140.5,10.9z M140.9,10.8l0.2,0
	v-0.1L140.9,10.8L140.9,10.8z M141.3,10.7l0.3,0v-0.1L141.3,10.7L141.3,10.7z M141.4,8.8l0.2,0V8.7L141.4,8.8L141.4,8.8z"/>
<path class="st0" d="M153.6,8.3c2,0,3.4,0.9,4.1,2.7h-0.1c-0.2-0.2-0.4-0.4-0.6-0.4V11l-0.6-0.5v0.1c0.1,0.3,0.2,0.4,0.3,0.4h0.1
	l-0.1,0.3v0.1l0.3-0.1l0.1,0.1l-0.1,0.1c0.8,0.5,1.1,1,1.1,1.6h-0.1c-0.1-0.1-0.2-0.1-0.2-0.1v0.1l0.2,0.4l-0.1,0.1
	c-0.8-0.7-1.3-1.1-1.4-1.1c-0.5-0.1-0.8-0.2-0.9-0.2c0,0.1,0,0.1-0.1,0.1h-0.1l-0.1-0.1c0,0.2-0.1,0.3-0.2,0.4l-0.1-0.1v-0.2
	c-0.1,0-0.2-0.1-0.2-0.1c-0.3,0.3-0.5,0.4-0.6,0.4H154c-0.1,0-0.2-0.1-0.2-0.2h-0.2c0,0.1,0,0.2-0.1,0.3l-0.3-0.1
	c-0.6,0.2-1.1,0.4-1.5,0.8c-0.7,0.2-1.9,1-3.6,2.4c-0.5,0.3-0.8,0.5-0.8,0.7c-0.1,0-0.5,0.3-1.1,0.9c-0.1,0-0.2,0.2-0.5,0.6
	c-0.4,0.2-0.6,0.5-0.6,0.8c-0.1,0-0.1-0.1-0.1-0.2H145c-0.1,0-0.1,0.1-0.2,0.3l0.3-0.1h0.2l0.3,0.1c0.1-0.1,0.1-0.2,0.1-0.2h-0.1
	v-0.1h0.2c0,0,0.1,0,0.1,0.1l0.1-0.1h0.1v0.1h-0.2V19c0.3,0,0.6-0.1,0.8-0.2h0.1l0.1,0.1c0-0.1,0.1-0.1,0.1-0.1h0.2l0.2,0.1l0.4-0.2
	h0.4c0.4,0,0.9,0,1.6-0.1v-0.1h-0.4v-0.1c0.1,0,0.2,0,0.3-0.1l0.1,0.1l0.2-0.1c0.3,0.1,0.5,0.2,0.5,0.3h0.1c0.2-0.1,0.3-0.2,0.4-0.2
	h0.1c0.2,0,0.4,0.1,0.8,0.4c0.2-0.1,0.4-0.2,0.5-0.2l0.2,0.2c0,0.1-0.1,0.1-0.1,0.2l0.3,0.2h0.1l-0.1-0.3h0.1
	c0.2,0.1,0.4,0.5,0.8,1.1c0.2,0.2,0.4,0.5,0.4,0.8c-0.1,0-0.1,0-0.1,0.1v0.3l0.2,0.3v0.1c-0.1,0-0.1-0.1-0.1-0.2h-0.2v0.2
	c0.3,0.1,0.5,0.3,0.5,0.6c0,0.1-0.1,0.2-0.1,0.2c0,0.1,0.1,0.1,0.1,0.2c0,1.2-1.5,3-4.4,5.5c-0.8,0.6-1.2,0.9-1.3,0.9V29l0.1-0.1
	h-0.1c-2.1,1.6-3.8,2.6-5.2,3.2c0,0.1-0.2,0.2-0.4,0.2h-0.1l0.1-0.1h-0.1c-0.9,0.5-1.4,0.8-1.4,0.8v-0.1l0.2-0.3h-0.1l-0.8,0.4
	c-0.1,0-0.2-0.1-0.2-0.1c-3.3,1.3-5.2,1.9-5.9,1.9v-0.1c0,0,0-0.1-0.1-0.1c0,0.1-0.4,0.2-1.2,0.2v-0.1l0.9-0.3v-0.1h-0.1
	c-0.2,0.1-0.3,0.1-0.4,0.1v-0.1c0.7-0.5,2.4-1.2,5-2.4V32h-0.1c-2.2,1-3.4,1.4-3.6,1.4c0.3-0.3,1.8-1.2,4.5-2.8h0.1
	c-0.2,0.2-0.5,0.4-0.8,0.6v0.1h0.1c0.5-0.1,0.8-0.4,1.2-0.8l0.1,0.1c0-0.3,0.4-0.6,1.2-0.9c0-0.1,0.1-0.1,0.2-0.1v-0.1h-0.1
	l-0.3,0.2h-0.1l3.9-2.8h0.1v-0.1c-1.6,1.1-2.5,1.6-2.8,1.6c-0.4,0.4-1.2,0.8-2.2,1.3c0.6-0.6,1.8-1.5,3.4-2.5c0.4-0.7,1.7-2,3.8-3.8
	c0.2-0.4,0.4-0.6,0.5-0.8h-0.1c-0.8,0-1.5,0.1-2.2,0.3c-0.1,0-0.2-0.1-0.2-0.1c-0.6,0.1-1.2,0.2-1.9,0.2l-0.1,0.1l-0.1-0.1
	c-0.3,0.1-0.5,0.1-0.5,0.1V23l-0.1,0.1h-0.3c-0.1,0-0.2-0.5-0.4-1.4c-0.4-0.6-0.6-1-0.8-1.1c-1.3-0.3-2-0.6-2-1
	c-0.1-0.5-0.2-0.8-0.2-0.8v-0.1h0.2l-0.1-0.1v-0.2c0.1,0,0.2-0.1,0.2-0.2l-0.1-0.1v-0.1c0.1-0.1,0.1-0.2,0.1-0.2c0,0-0.1,0-0.1-0.1
	l0.7-0.9c0-0.2,0.1-0.3,0.4-0.4c0-0.1-0.1-0.1-0.1-0.2c0.3-0.1,0.4-0.1,0.4-0.2c-0.1,0-0.2,0-0.2-0.1l0.8-0.4l-0.1-0.1v-0.1
	c0.2,0,0.2-0.1,0.2-0.2l0.5-0.3c0-0.2,0.1-0.4,0.4-0.6c0,0,0,0.1,0.1,0.1c0-0.2,0.1-0.2,0.2-0.3c0-0.1,0.2-0.3,0.6-0.6h0.1l-0.1,0.1
	h0.1c0-0.1,0.1-0.2,0.3-0.4c0.1,0,0.1,0.1,0.2,0.1c0.2-0.4,0.4-0.6,0.4-0.6h0.1l0.1,0.1c0-0.1,0.3-0.4,0.9-0.8
	c0-0.1,0.3-0.3,0.8-0.5c0-0.1,0.3-0.3,0.9-0.6c0.1-0.2,0.9-0.6,2.2-1.2c1.8-0.7,3-1,3.9-1H153.6z M134.6,34.7h0.1v-0.1L134.6,34.7
	L134.6,34.7z M139.5,19L139.5,19l0.1-0.1h-0.1V19z M139.5,18.8L139.5,18.8l0.1-0.1h-0.1V18.8z M139.6,19.1h0.1V19L139.6,19.1
	L139.6,19.1z M139.7,31.5h0.1v-0.1L139.7,31.5L139.7,31.5z M140.8,17.3v0.4c-0.1,0-0.3,0.2-0.4,0.6c-0.1,0-0.1,0.1-0.2,0.1
	c0,0,0,0.1,0.1,0.2c-0.1,0.2-0.2,0.4-0.2,0.4c0.3,0.2,0.6,0.4,0.8,0.4v-0.1c0-0.1-0.1-0.2-0.1-0.2c0.4-1.6,0.7-2.4,0.9-2.4v-0.1
	c-0.4,0.5-0.6,0.7-0.6,0.7L140.8,17.3z M140.3,17.7L140.3,17.7L140.3,17.7c0.1,0,0.1-0.1,0.2-0.2h-0.1
	C140.4,17.6,140.4,17.6,140.3,17.7z M140.5,17.5L140.5,17.5l0.1-0.1h-0.1V17.5z M140.5,31.7L140.5,31.7c0.4-0.1,0.6-0.2,0.6-0.3
	h-0.1C140.8,31.6,140.6,31.7,140.5,31.7L140.5,31.7z M140.8,17L140.8,17c0.1,0.1,0.2,0,0.2-0.2v-0.1H141
	C141,16.8,140.9,16.9,140.8,17z M141.1,16.7c0.1,0,0.1-0.1,0.2-0.2v-0.1C141.3,16.4,141.2,16.5,141.1,16.7L141.1,16.7z M141.2,31.3
	h0.1v-0.1L141.2,31.3L141.2,31.3z M141.5,16.3c0,0,0.2-0.1,0.3-0.4h-0.1C141.6,16,141.5,16.1,141.5,16.3L141.5,16.3z M141.6,16.6
	c0.1,0,0.1,0,0.1-0.1h-0.1V16.6z M141.7,17.4h0.1v-0.1L141.7,17.4L141.7,17.4z M141.8,15.9h0.1v-0.1L141.8,15.9L141.8,15.9z
	 M141.9,15.7c0,0.1,0.1,0.1,0.1,0.1l0.2-0.3v-0.1C142.2,15.5,142,15.6,141.9,15.7L141.9,15.7z M142.1,16L142.1,16l0.1-0.1h-0.1V16z
	 M142.5,14.9V15h0.2c0-0.1,0.1-0.2,0.3-0.3v-0.1h-0.1C142.8,14.8,142.7,14.9,142.5,14.9z M143,14.5h0.1v-0.1L143,14.5L143,14.5z
	 M143.1,14.3L143.1,14.3L143.1,14.3c0.5-0.1,0.8-0.3,0.8-0.6l-0.1-0.1C143.4,14.1,143.2,14.3,143.1,14.3z M143.1,30.3h0.1v-0.1
	L143.1,30.3L143.1,30.3z M143.4,27.8h0.1v-0.1L143.4,27.8L143.4,27.8z M143.6,27.7c0.9-0.6,1.4-1,1.6-1.1h-0.1
	C144.3,27.1,143.8,27.5,143.6,27.7L143.6,27.7z M144.1,13.7v-0.1H144c-0.1,0-0.1,0-0.1,0.1H144.1z M144,26.9h0.1v-0.1L144,26.9
	L144,26.9z M144.3,26.8c0.1,0,0.3-0.2,0.8-0.6c0.3-0.1,0.5-0.4,0.8-0.8h-0.1L144.3,26.8L144.3,26.8z M144.6,13.1h0.2V13L144.6,13.1
	L144.6,13.1z M144.6,26.2h0.1v-0.1L144.6,26.2L144.6,26.2z M145,12.7h0.1v-0.1L145,12.7L145,12.7z M145.3,26.5h0.1v-0.1L145.3,26.5
	L145.3,26.5z M145.8,12.1c0,0,0.1,0,0.2,0.1h0.1v-0.1C146,12.1,145.9,12.1,145.8,12.1L145.8,12.1L145.8,12.1z M146,25.4
	c0.2-0.2,0.4-0.3,0.4-0.3h-0.1C146.1,25.2,146,25.3,146,25.4L146,25.4z M146.6,24.6l-0.1,0.4c0.4-0.2,0.7-0.5,1-0.9h-0.1
	C147.1,24.5,146.8,24.7,146.6,24.6C146.7,24.6,146.7,24.6,146.6,24.6z M147.5,11.1c0.1,0,0.1,0,0.1-0.1h-0.1
	C147.5,11,147.5,11,147.5,11.1L147.5,11.1z M147.7,24c0.1,0,0.1-0.1,0.2-0.2h-0.1C147.8,23.8,147.7,23.8,147.7,24L147.7,24z
	 M147.7,11.5h0.1v-0.1L147.7,11.5L147.7,11.5z M147.8,10.8h0.1v-0.1L147.8,10.8L147.8,10.8z M147.8,27.1c0.1,0,0.1,0,0.1-0.1h-0.1
	C147.8,27,147.8,27,147.8,27.1L147.8,27.1z M148.1,26.9c0,0,0.6-0.4,1.6-1.2v-0.1h-0.1L148.1,26.9L148.1,26.9z M148.2,23.5
	c0.1,0,0.4-0.3,0.9-0.9H149C148.7,22.9,148.4,23.2,148.2,23.5L148.2,23.5z M148.4,13.3c0.1,0,0.1,0,0.1-0.1h-0.1
	C148.4,13.2,148.3,13.2,148.4,13.3L148.4,13.3z M148.6,10.5v-0.2c-0.1,0-0.1,0-0.1,0.1L148.6,10.5z M148.7,23.6c0.1,0,0.1,0,0.1-0.1
	h-0.1C148.7,23.5,148.6,23.5,148.7,23.6L148.7,23.6z M148.8,13v-0.1c-0.1,0-0.1,0-0.1,0.1H148.8z M150.6,11.7
	c-0.1,0.1-0.2,0.2-0.2,0.3h-0.1c0,0-0.1,0-0.1-0.1c0,0-0.5,0.2-1.2,0.8v0.1h0.1c2.2-1.3,3.7-1.9,4.4-1.9v-0.1h-0.1
	C152.6,10.9,151.6,11.2,150.6,11.7C150.6,11.7,150.6,11.7,150.6,11.7z M149.2,23.6c0.1,0,0.1,0,0.1-0.1v-0.1
	C149.3,23.4,149.2,23.5,149.2,23.6L149.2,23.6z M149.7,25.5c0.1,0,0.1,0,0.1-0.1h-0.1V25.5z M149.9,26.6c0.1,0,0.1,0,0.1-0.1H150
	C149.9,26.5,149.8,26.5,149.9,26.6L149.9,26.6z M150,22.7h0.1v-0.1L150,22.7L150,22.7z M150.2,9.7h0.1V9.7L150.2,9.7L150.2,9.7z
	 M150.4,26.2c0.1,0,0.1,0,0.1-0.1h-0.1C150.4,26.1,150.3,26.1,150.4,26.2L150.4,26.2z M150.6,26c0.1,0,0.1,0,0.1-0.1h-0.1V26z
	 M150.8,25.8c0.1,0,0.2-0.1,0.2-0.2v-0.1C151,25.5,150.9,25.6,150.8,25.8L150.8,25.8z M151.1,25.4c0.1,0,0.1,0,0.1-0.1v-0.1
	C151.2,25.2,151.1,25.3,151.1,25.4L151.1,25.4z M151.5,25c0.1,0,0.1-0.1,0.2-0.2h-0.1C151.6,24.9,151.5,24.9,151.5,25L151.5,25z
	 M152,24.5c0.1,0,0.2-0.1,0.2-0.2v-0.1C152.1,24.2,152.1,24.3,152,24.5L152,24.5z M152.2,19h0.2c0-0.1,0-0.1-0.1-0.1L152.2,19z
	 M152.8,8.6h0.5l-0.1-0.1C153.1,8.5,153,8.5,152.8,8.6L152.8,8.6z M153.3,21h0.1v-0.1c0-0.1,0-0.1-0.1-0.1V21z M153.4,8.5h0.2V8.5
	L153.4,8.5L153.4,8.5z M153.4,10.3h0.2v-0.1L153.4,10.3L153.4,10.3z M153.8,22.1L153.8,22.1l0.1-0.1h-0.1V22.1z M154.1,12.5h0.2
	v-0.1L154.1,12.5L154.1,12.5z M154.5,10.3c0.5,0.1,0.8,0.1,0.9,0.1v-0.1c0,0-0.2,0-0.4-0.1c0,0,0,0.1-0.1,0.1c0-0.1,0-0.1-0.1-0.1
	h-0.3V10.3z M155.4,10.6c0.1,0,0.3,0.1,0.5,0.2h0.1v-0.1c-0.1,0-0.2-0.1-0.3-0.2L155.4,10.6L155.4,10.6z M155.6,9h0.1V8.9L155.6,9
	L155.6,9z M156.9,10.3c0-0.1-0.1-0.2-0.3-0.2C156.6,10.3,156.7,10.3,156.9,10.3z M157.8,12.8L157.8,12.8c0-0.1-0.1-0.2-0.4-0.4h-0.1
	C157.3,12.5,157.5,12.6,157.8,12.8z M157.5,13.2L157.5,13.2l0.1-0.1h-0.1V13.2z"/>
<path class="st0" d="M24,0.6C12.7,0.6,3.6,9.8,3.6,21c0,11.3,9.1,20.4,20.4,20.4c11.3,0,20.4-9.1,20.4-20.4
	C44.4,9.8,35.3,0.6,24,0.6z M34.4,35.1l-5.6-15.6l4.9-5.4l3-3.2l0,0l0,0l-3.3,2.5L28,17.5l-2.4-6.7h-5.3l-6.1,17.3l-1.1,3.2h4.7
	l7.8-8.4l2.6,8.4l1.9,6.1c-1.9,0.7-4,1.1-6.1,1.1c-9.6,0-17.4-7.8-17.4-17.4c0-9.6,7.8-17.4,17.4-17.4S41.4,11.4,41.4,21
	C41.4,26.8,38.7,31.9,34.4,35.1z M24.8,20l-4.6,3.5l1.6-5.5c0.1-0.2,0.2-0.6,0.3-1.1s0.3-1,0.5-1.6c0.2-0.6,0.3-1,0.4-1.4
	C23.2,14.4,24.8,20,24.8,20z"/>
</svg>
